<svg width="116" height="84" viewBox="0 0 116 84" fill="none" xmlns="http://www.w3.org/2000/svg">
<path d="M34.6927 74.8158C34.6958 74.8159 34.6958 74.8159 34.6958 74.8159L34.6958 74.8158L34.6958 74.8153L34.696 74.8118L34.6966 74.796C34.6972 74.7815 34.6981 74.7594 34.6996 74.7297C34.7025 74.6704 34.7074 74.5812 34.7152 74.464C34.7308 74.2296 34.7579 73.8836 34.804 73.4418C34.8963 72.5581 35.0645 71.2923 35.3678 69.772C35.9748 66.7293 37.1206 62.679 39.2733 58.6341C41.425 54.5909 44.578 50.5619 49.1981 47.5428C53.815 44.5258 59.9244 42.4992 68.0211 42.4992V41.9992V41.4992C59.9245 41.4992 53.8151 39.4726 49.1982 36.4557C44.578 33.4365 41.4251 29.4075 39.2733 25.3643C37.1206 21.3194 35.9748 17.2691 35.3678 14.2264C35.0645 12.7061 34.8963 11.4404 34.804 10.5567C34.7579 10.1149 34.7308 9.76882 34.7152 9.53444C34.7074 9.41726 34.7025 9.32802 34.6996 9.26872C34.6981 9.23907 34.6972 9.2169 34.6966 9.20248L34.696 9.18667L34.6958 9.18318L34.6958 9.18266L34.6958 9.18254C34.6958 9.18254 34.6958 9.18254 34.6927 9.18266L33.6995 9.18266C33.6964 9.18254 33.6964 9.18254 33.6964 9.18254L33.6964 9.18266L33.6964 9.18318L33.6962 9.18667L33.6956 9.20248C33.695 9.2169 33.694 9.23907 33.6926 9.26872C33.6897 9.32802 33.6848 9.41726 33.677 9.53444C33.6614 9.76882 33.6343 10.1149 33.5881 10.5567C33.4958 11.4404 33.3276 12.7061 33.0244 14.2264C32.4173 17.2691 31.2716 21.3194 29.1189 25.3643C26.9671 29.4075 23.8142 33.4365 19.194 36.4557C14.5771 39.4726 8.46771 41.4992 0.371094 41.4992V41.9992V42.4992C8.46774 42.4992 14.5771 44.5258 19.1941 47.5428C23.8142 50.5619 26.9672 54.5909 29.1189 58.6341C31.2716 62.679 32.4174 66.7293 33.0244 69.772C33.3276 71.2923 33.4958 72.5581 33.5881 73.4418C33.6343 73.8836 33.6614 74.2296 33.677 74.464C33.6848 74.5812 33.6897 74.6704 33.6926 74.7297C33.694 74.7594 33.695 74.7815 33.6956 74.796L33.6962 74.8118L33.6963 74.8153L33.6964 74.8158L33.6964 74.8159C33.6964 74.8159 33.6964 74.8159 33.6995 74.8158H34.6927Z" fill="#EDEEEF" stroke="currentColor"/>
<path d="M73.9882 83.0165H73.9887L73.9887 83.0156L73.9889 83.011L73.9897 82.9907C73.9904 82.9724 73.9917 82.9443 73.9935 82.9069C73.9972 82.8321 74.0033 82.7198 74.013 82.5726C74.0325 82.2781 74.0665 81.8439 74.1241 81.29C74.2395 80.1821 74.4495 78.5959 74.8282 76.6913C75.5861 72.8797 77.0168 67.8042 79.706 62.7343C82.3942 57.666 86.3351 52.6121 92.112 48.8244C97.8855 45.0389 105.52 42.5 115.628 42.5V42V41.5C105.52 41.5 97.8856 38.9611 92.1121 35.1756C86.3352 31.3879 82.3943 26.334 79.706 21.2657C77.0169 16.1958 75.5861 11.1203 74.8283 7.30874C74.4496 5.40405 74.2395 3.81793 74.1241 2.70995C74.0665 2.15605 74.0325 1.72188 74.0131 1.42743C74.0033 1.2802 73.9972 1.16793 73.9935 1.0931C73.9917 1.05569 73.9905 1.02764 73.9897 1.00927L73.9889 0.989005L73.9887 0.98439L73.9887 0.983492L73.9887 0.983475L73.9882 0.983492H72.9898L72.9893 0.983475L72.9893 0.983492L72.9892 0.98439L72.9891 0.989005L72.9883 1.00927C72.9875 1.02764 72.9863 1.05569 72.9845 1.0931C72.9808 1.16793 72.9746 1.2802 72.9649 1.42743C72.9454 1.72188 72.9115 2.15605 72.8538 2.70995C72.7385 3.81793 72.5284 5.40405 72.1497 7.30874C71.3918 11.1203 69.9611 16.1958 67.2719 21.2657C64.5837 26.334 60.6427 31.3879 54.8659 35.1756C49.0924 38.9611 41.4577 41.5 31.3496 41.5V42V42.5C41.4577 42.5 49.0924 45.0389 54.8659 48.8244C60.6428 52.6121 64.5837 57.666 67.272 62.7343C69.9611 67.8042 71.3919 72.8797 72.1497 76.6913C72.5284 78.5959 72.7385 80.1821 72.8538 81.29C72.9115 81.8439 72.9454 82.2781 72.9649 82.5726C72.9746 82.7198 72.9808 82.8321 72.9844 82.9069C72.9863 82.9443 72.9875 82.9724 72.9883 82.9907L72.989 83.011L72.9892 83.0156L72.9892 83.0165H72.9897H73.9882Z" fill="#EDEEEF" stroke="currentColor"/>
</svg>
