<svg width="105" height="75" viewBox="0 0 105 75" fill="none" xmlns="http://www.w3.org/2000/svg">
<path d="M37.0146 0.983423L37.0146 0.983492L37.0146 0.984185L37.0144 0.988186L37.0137 1.00601C37.0131 1.02222 37.012 1.04704 37.0103 1.0802C37.0071 1.14651 37.0017 1.24615 36.993 1.37689C36.9757 1.63838 36.9455 2.02421 36.8943 2.51659C36.7918 3.50152 36.605 4.91186 36.2682 6.60562C35.5942 9.99533 34.322 14.5083 31.9312 19.0157C29.5412 23.5215 26.0386 28.0129 20.9051 31.3787C15.775 34.7424 8.98896 37 0 37V37.5V38C8.98899 38 15.7751 40.2576 20.9052 43.6213C26.0386 46.9871 29.5413 51.4785 31.9312 55.9843C34.322 60.4917 35.5942 65.0047 36.2682 68.3944C36.605 70.0881 36.7918 71.4985 36.8943 72.4834C36.9455 72.9758 36.9757 73.3616 36.993 73.6231C37.0017 73.7539 37.0071 73.8535 37.0103 73.9198C37.012 73.953 37.0131 73.9778 37.0137 73.994L37.0144 74.0118L37.0146 74.0158L37.0146 74.0165L37.0146 74.0166L37.0167 74.0165H38.012L38.014 74.0166L38.014 74.0165L38.0141 74.0158L38.0142 74.0118L38.0149 73.994C38.0156 73.9778 38.0166 73.953 38.0183 73.9198C38.0215 73.8535 38.027 73.7539 38.0356 73.6231C38.0529 73.3616 38.0831 72.9758 38.1343 72.4834C38.2369 71.4985 38.4237 70.0881 38.7604 68.3944C39.4344 65.0047 40.7066 60.4917 43.0974 55.9843C45.4873 51.4785 48.99 46.9871 54.1235 43.6213C59.2535 40.2576 66.0396 38 75.0286 38V37.5V37C66.0397 37 59.2536 34.7424 54.1235 31.3787C48.9901 28.0129 45.4874 23.5215 43.0975 19.0157C40.7067 14.5083 39.4344 9.99533 38.7604 6.60562C38.4237 4.91186 38.2369 3.50152 38.1344 2.51659C38.0831 2.02421 38.0529 1.63838 38.0356 1.37689C38.027 1.24615 38.0215 1.14651 38.0183 1.0802C38.0167 1.04704 38.0156 1.02222 38.0149 1.00601L38.0142 0.988186L38.0141 0.984185L38.014 0.983492L38.014 0.983423L38.012 0.983492L37.0167 0.983492L37.0146 0.983423Z" fill="#EDEEEF" stroke="black"/>
<path d="M66.0107 0.983423L66.0107 0.983492L66.0107 0.984185L66.0105 0.988186L66.0098 1.00601C66.0092 1.02222 66.0081 1.04704 66.0064 1.0802C66.0032 1.14651 65.9977 1.24615 65.9891 1.37689C65.9718 1.63838 65.9416 2.02421 65.8904 2.51659C65.7879 3.50152 65.6011 4.91186 65.2643 6.60562C64.5903 9.99533 63.3181 14.5083 60.9272 19.0157C58.5373 23.5215 55.0347 28.0129 49.9012 31.3787C44.7711 34.7424 37.9851 37 28.9961 37V37.5V38C37.9851 38 44.7712 40.2576 49.9013 43.6213C55.0347 46.9871 58.5374 51.4785 60.9273 55.9843C63.3181 60.4917 64.5903 65.0047 65.2643 68.3944C65.6011 70.0881 65.7879 71.4985 65.8904 72.4834C65.9416 72.9758 65.9718 73.3616 65.9891 73.6231C65.9977 73.7539 66.0032 73.8535 66.0064 73.9198C66.0081 73.953 66.0091 73.9778 66.0098 73.994L66.0105 74.0118L66.0107 74.0158L66.0107 74.0165L66.0107 74.0166L66.0127 74.0165H67.0081L67.0101 74.0166L67.0101 74.0165L67.0102 74.0158L67.0103 74.0118L67.011 73.994C67.0117 73.9778 67.0127 73.953 67.0144 73.9198C67.0176 73.8535 67.0231 73.7539 67.0317 73.6231C67.049 73.3616 67.0792 72.9758 67.1304 72.4834C67.233 71.4985 67.4197 70.0881 67.7565 68.3944C68.4305 65.0047 69.7027 60.4917 72.0935 55.9843C74.4834 51.4785 77.9861 46.9871 83.1195 43.6213C88.2496 40.2576 95.0357 38 104.025 38V37.5V37C95.0358 37 88.2497 34.7424 83.1196 31.3787C77.9862 28.0129 74.4835 23.5215 72.0936 19.0157C69.7028 14.5083 68.4305 9.99533 67.7565 6.60562C67.4198 4.91186 67.233 3.50152 67.1304 2.51659C67.0792 2.02421 67.049 1.63838 67.0317 1.37689C67.0231 1.24615 67.0176 1.14651 67.0144 1.0802C67.0127 1.04704 67.0117 1.02222 67.011 1.00601L67.0103 0.988186L67.0102 0.984185L67.0101 0.983492L67.0101 0.983423L67.0081 0.983492L66.0128 0.983492L66.0107 0.983423Z" fill="#EDEEEF" stroke="black"/>
</svg>
