<svg width="21" height="14" viewBox="0 0 21 14" fill="none" xmlns="http://www.w3.org/2000/svg">
<path d="M17.2981 11.0438C15.4408 12.5479 12.9563 13.4762 10.4704 13.4989L10.443 13.4992C10.4424 13.4993 10.442 13.4993 10.427 13.4992L10.4226 13.4993C10.4076 13.4993 10.4072 13.4993 10.4066 13.4992C10.4059 13.4991 10.405 13.4989 10.3793 13.4989C7.89336 13.4762 5.40881 12.5479 3.5515 11.0438C1.69436 9.53977 0.5 7.49294 0.5 5.2364C0.5 2.62056 2.62056 0.5 5.2364 0.5C7.6334 0.5 9.61524 2.28105 9.92936 4.59178H10.9202C11.2344 2.28105 13.2162 0.5 15.6132 0.5C18.2291 0.5 20.3496 2.62056 20.3496 5.2364C20.3496 7.49294 19.1553 9.53977 17.2981 11.0438Z"/>
</svg>
