<svg width="23" height="24" viewBox="0 0 23 24" fill="none" xmlns="http://www.w3.org/2000/svg">
<path d="M0.0961915 11.8971C0.0954983 13.9147 0.622668 15.8844 1.62475 17.6204L0 23.5523L6.07087 21.9605C7.74359 22.8727 9.62671 23.3534 11.5433 23.3542H11.5482C17.8594 23.3542 22.9974 18.2178 23 11.906C23.0011 8.8468 21.8108 5.97048 19.6488 3.80667C17.4865 1.64286 14.6115 0.450539 11.5482 0.449219C5.23566 0.449219 0.0986396 5.58459 0.0959988 11.8968L0.0961915 11.8971ZM3.71126 17.3213L3.48464 16.9614C2.53171 15.4463 2.02876 13.6953 2.02946 11.8976C2.03154 6.65134 6.30128 2.38282 11.5515 2.38282C14.094 2.38381 16.4836 3.375 18.281 5.17335C20.0781 6.97183 21.0671 9.36265 21.0664 11.9051C21.064 17.1517 16.7942 21.4205 11.5479 21.4205H11.5442C9.83597 21.4196 8.16068 20.961 6.69965 20.094L6.35193 19.8879L2.74921 20.8325L3.71126 17.3213ZM11.5482 23.3542H11.5483H11.5482C11.548 23.3542 11.5479 23.3542 11.5482 23.3542Z" fill="black"/>
<path fill-rule="evenodd" clip-rule="evenodd" d="M8.68581 7.11047C8.47142 6.63394 8.24585 6.6244 8.04195 6.61601C7.87508 6.60892 7.68422 6.60938 7.49359 6.60938C7.30272 6.60938 6.99273 6.681 6.73059 6.96734C6.46823 7.2537 5.729 7.94589 5.729 9.35367C5.729 10.7616 6.75449 12.122 6.89736 12.313C7.04048 12.5038 8.87694 15.4852 11.7852 16.6321C14.2023 17.5852 14.6942 17.3957 15.2189 17.3479C15.7435 17.3003 16.9118 16.6559 17.1502 15.9878C17.3887 15.3197 17.3887 14.747 17.3172 14.6274C17.2457 14.5081 17.0548 14.4365 16.7687 14.2935C16.4825 14.1504 15.0757 13.4581 14.8135 13.3626C14.5511 13.2672 14.3604 13.2196 14.1695 13.5061C13.9787 13.7922 13.4307 14.4365 13.2637 14.6274C13.0969 14.8186 12.9299 14.8425 12.6437 14.6994C12.3575 14.5558 11.4359 14.2539 10.3426 13.2792C9.49197 12.5208 8.91773 11.5842 8.75073 11.2977C8.58386 11.0115 8.73292 10.8566 8.87639 10.7139C9.00495 10.5857 9.16263 10.3798 9.30575 10.2128C9.44852 10.0457 9.49615 9.92644 9.59152 9.73557C9.68701 9.54459 9.63927 9.37748 9.56777 9.23435C9.49615 9.09123 8.94008 7.67621 8.68564 7.11038" fill="black"/>
</svg>
