<svg width="58" height="40" viewBox="0 0 58 40" fill="none" xmlns="http://www.w3.org/2000/svg">
<path d="M54.7242 22.445C54.7242 23.5841 54.1044 24.7306 52.848 25.8339C51.5925 26.9364 49.7471 27.9521 47.4235 28.8151C42.7802 30.5398 36.3322 31.6166 29.1853 31.6166C22.0385 31.6166 15.5905 30.5398 10.9472 28.8151C8.62363 27.9521 6.77816 26.9364 5.52267 25.8339C4.2663 24.7306 3.64648 23.5841 3.64648 22.445C3.64648 21.3059 4.2663 20.1594 5.52267 19.0561C6.77816 17.9536 8.62363 16.9379 10.9472 16.0749C15.5905 14.3502 22.0385 13.2734 29.1853 13.2734C36.3322 13.2734 42.7802 14.3502 47.4235 16.0749C49.7471 16.9379 51.5925 17.9536 52.848 19.0561C54.1044 20.1594 54.7242 21.3059 54.7242 22.445Z" fill="white" stroke="black"/>
<path d="M54.6808 9.47338C54.9739 10.5672 54.6549 11.8384 53.6839 13.2434C52.7144 14.6462 51.1327 16.1228 49.0344 17.5793C44.8415 20.4897 38.6789 23.2562 31.5408 25.1689C24.4026 27.0815 17.6824 27.767 12.596 27.3429C10.0506 27.1307 7.94256 26.6428 6.40158 25.9127C4.85813 25.1814 3.94623 24.24 3.65314 23.1462C3.36006 22.0524 3.67909 20.7812 4.65011 19.3761C5.61959 17.9734 7.20126 16.4968 9.29956 15.0403C13.4924 12.1299 19.655 9.3634 26.7932 7.45073C33.9314 5.53806 40.6516 4.8526 45.7379 5.27667C48.2834 5.4889 50.3914 5.97678 51.9324 6.70689C53.4758 7.43817 54.3878 8.37958 54.6808 9.47338Z" fill="white" stroke="black"/>
<path d="M54.7242 10.0466C54.7242 11.1857 54.1044 12.3322 52.848 13.4355C51.5925 14.538 49.7471 15.5537 47.4235 16.4167C42.7802 18.1414 36.3322 19.2182 29.1853 19.2182C22.0385 19.2182 15.5905 18.1414 10.9472 16.4167C8.62363 15.5537 6.77816 14.538 5.52267 13.4355C4.2663 12.3322 3.64648 11.1857 3.64648 10.0466C3.64648 8.90747 4.2663 7.76095 5.52267 6.65766C6.77816 5.55515 8.62363 4.53949 10.9472 3.67645C15.5905 1.9518 22.0385 0.875 29.1853 0.875C36.3322 0.875 42.7802 1.9518 47.4235 3.67645C49.7471 4.53949 51.5925 5.55515 52.848 6.65766C54.1044 7.76095 54.7242 8.90747 54.7242 10.0466Z" fill="white" stroke="black"/>
</svg>
