<svg width="41" height="17" viewBox="0 0 41 17" fill="none" xmlns="http://www.w3.org/2000/svg">
<g clip-path="url(#clip0_801_30796)">
<path d="M7.49648 2.19172C7.01601 2.76594 6.24726 3.21884 5.47851 3.15414C5.38241 2.37774 5.75878 1.55281 6.19921 1.04329C6.67968 0.452902 7.5205 0.0323501 8.20116 0C8.28124 0.808754 7.96894 1.60133 7.49648 2.19172ZM8.19316 3.3078C7.08007 3.2431 6.12714 3.94672 5.59862 3.94672C5.0621 3.94672 4.25331 3.34015 3.37245 3.35633C2.22733 3.3725 1.1623 4.02759 0.577725 5.07089C-0.623447 7.15747 0.26542 10.2469 1.42655 11.9453C1.99511 12.7864 2.67577 13.7084 3.57265 13.676C4.42148 13.6437 4.7578 13.118 5.7828 13.118C6.81581 13.118 7.1121 13.676 8.00898 13.6598C8.93788 13.6437 9.52245 12.8187 10.091 11.9776C10.7396 11.0233 11.0039 10.0932 11.0199 10.0447C11.0039 10.0285 9.22616 9.3411 9.21015 7.27069C9.19413 5.53996 10.6115 4.71503 10.6756 4.66651C9.8748 3.46955 8.62558 3.34015 8.19316 3.3078ZM14.6234 0.962417V13.5709H16.5613V9.26023H19.2439C21.6943 9.26023 23.416 7.56185 23.416 5.10324C23.416 2.64462 21.7264 0.962417 19.308 0.962417H14.6234V0.962417ZM16.5613 2.61227H18.7955C20.4771 2.61227 21.4381 3.51808 21.4381 5.11132C21.4381 6.70457 20.4771 7.61846 18.7875 7.61846H16.5613V2.61227V2.61227ZM26.9555 13.6679C28.1726 13.6679 29.3018 13.0452 29.8143 12.0585H29.8543V13.5709H31.648V7.29496C31.648 5.47526 30.2066 4.30257 27.9885 4.30257C25.9305 4.30257 24.409 5.49144 24.3529 7.12512H26.0986C26.2428 6.34872 26.9555 5.8392 27.9324 5.8392C29.1176 5.8392 29.7822 6.39724 29.7822 7.42436V8.11989L27.3639 8.26546C25.1137 8.40295 23.8965 9.33302 23.8965 10.9505C23.8965 12.5842 25.1537 13.6679 26.9555 13.6679ZM27.476 12.1717C26.443 12.1717 25.7863 11.6703 25.7863 10.902C25.7863 10.1094 26.4189 9.64843 27.6281 9.57564L29.7822 9.43815V10.1499C29.7822 11.3306 28.7893 12.1717 27.476 12.1717ZM34.0424 17C35.9322 17 36.8211 16.2721 37.5978 14.0642L41.0012 4.42388H39.0312L36.749 11.8725H36.709L34.4268 4.42388H32.4008L35.684 13.6032L35.5078 14.1613C35.2115 15.1075 34.731 15.4715 33.8742 15.4715C33.7221 15.4715 33.4258 15.4553 33.3057 15.4391V16.9515C33.4178 16.9838 33.8982 17 34.0424 17Z" fill="black"/>
</g>
<defs>
<clipPath id="clip0_801_30796">
<rect width="41" height="17" fill="white"/>
</clipPath>
</defs>
</svg>
