<svg width="57" height="42" viewBox="0 0 57 42" fill="none" xmlns="http://www.w3.org/2000/svg">
<path d="M29.7806 24.5431C32.5515 22.7264 36.226 21.5 41.1116 21.5V21V20.5C36.226 20.5 32.5515 19.2736 29.7806 17.4569C27.0065 15.6379 25.1107 13.209 23.8147 10.7657C22.5179 8.32076 21.8267 5.87033 21.4603 4.02749C21.2773 3.10717 21.1759 2.34137 21.1203 1.80761C21.0926 1.54081 21.0763 1.33223 21.067 1.19159C21.0623 1.12127 21.0594 1.06796 21.0577 1.03286L21.0559 0.994048L21.0556 0.98518L21.0555 0.983492L21.0555 0.983431L21.0555 0.983235C21.0555 0.983255 21.0555 0.983279 21.0498 0.983492L20.0617 0.983492C20.0561 0.983279 20.0561 0.983255 20.0561 0.983235L20.0561 0.983431L20.0561 0.983492L20.056 0.98518L20.0557 0.994048L20.0539 1.03286C20.0522 1.06796 20.0493 1.12127 20.0446 1.19159C20.0353 1.33223 20.019 1.54081 19.9912 1.80761C19.9357 2.34137 19.8343 3.10717 19.6513 4.02749C19.2849 5.87033 18.5937 8.32076 17.2968 10.7657C16.0009 13.209 14.1051 15.6379 11.3309 17.4569C8.56009 19.2736 4.88559 20.5 0 20.5V21V21.5C4.88561 21.5 8.56012 22.7264 11.331 24.5431C14.1051 26.3621 16.0009 28.791 17.2969 31.2343C18.5937 33.6792 19.2849 36.1297 19.6513 37.9725C19.8343 38.8928 19.9357 39.6586 19.9912 40.1924C20.019 40.4592 20.0353 40.6678 20.0446 40.8084C20.0493 40.8787 20.0522 40.932 20.0539 40.9671L20.0556 41.006L20.056 41.0148L20.0561 41.0165L20.0561 41.0166L20.0561 41.0168C20.0561 41.0167 20.0561 41.0167 20.0617 41.0165H21.0498C21.0555 41.0167 21.0555 41.0167 21.0555 41.0168L21.0555 41.0166L21.0555 41.0165L21.0556 41.0148L21.0559 41.006L21.0577 40.9671C21.0594 40.932 21.0623 40.8787 21.067 40.8084C21.0763 40.6678 21.0926 40.4592 21.1203 40.1924C21.1759 39.6586 21.2773 38.8928 21.4603 37.9725C21.8267 36.1297 22.5179 33.6792 23.8147 31.2343C25.1107 28.791 27.0064 26.3621 29.7806 24.5431Z" fill="white" stroke="black"/>
<path d="M45.6693 24.5431C48.4401 22.7264 52.1146 21.5 57.0003 21.5V21V20.5C52.1147 20.5 48.4402 19.2736 45.6693 17.4569C42.8951 15.6379 40.9994 13.209 39.7034 10.7657C38.4066 8.32076 37.7154 5.87033 37.349 4.02749C37.166 3.10717 37.0646 2.34137 37.009 1.80761C36.9813 1.54081 36.965 1.33223 36.9556 1.19159C36.951 1.12127 36.9481 1.06796 36.9464 1.03286L36.9446 0.994048L36.9443 0.98518L36.9442 0.983492L36.9442 0.983431L36.9442 0.983235C36.9442 0.983255 36.9442 0.983279 36.9385 0.983492L35.9504 0.983492C35.9447 0.983279 35.9447 0.983255 35.9447 0.983235L35.9447 0.983431L35.9447 0.983492L35.9447 0.98518L35.9443 0.994048L35.9426 1.03286C35.9408 1.06796 35.9379 1.12127 35.9333 1.19159C35.924 1.33223 35.9077 1.54081 35.8799 1.80761C35.8243 2.34137 35.723 3.10717 35.54 4.02749C35.1736 5.87033 34.4823 8.32076 33.1855 10.7657C31.8896 13.209 29.9938 15.6379 27.2196 17.4569C24.4488 19.2736 20.7743 20.5 15.8887 20.5V21V21.5C20.7743 21.5 24.4488 22.7264 27.2196 24.5431C29.9938 26.3621 31.8896 28.791 33.1855 31.2343C34.4824 33.6792 35.1736 36.1297 35.54 37.9725C35.723 38.8928 35.8243 39.6586 35.8799 40.1924C35.9077 40.4592 35.924 40.6678 35.9333 40.8084C35.9379 40.8787 35.9408 40.932 35.9426 40.9671L35.9443 41.006L35.9447 41.0148L35.9447 41.0165L35.9447 41.0166L35.9447 41.0168C35.9447 41.0167 35.9447 41.0167 35.9504 41.0165H36.9385C36.9442 41.0167 36.9442 41.0167 36.9442 41.0168L36.9442 41.0166L36.9442 41.0165L36.9442 41.0148L36.9446 41.006L36.9464 40.9671C36.9481 40.932 36.951 40.8787 36.9556 40.8084C36.965 40.6678 36.9812 40.4592 37.009 40.1924C37.0646 39.6586 37.166 38.8928 37.3489 37.9725C37.7153 36.1297 38.4066 33.6792 39.7034 31.2343C40.9993 28.791 42.8951 26.3621 45.6693 24.5431Z" fill="white" stroke="black"/>
</svg>
