<svg width="76" height="12" viewBox="0 0 76 12" fill="none" xmlns="http://www.w3.org/2000/svg">
<path d="M0 5.98673C0 9.86691 1.78917 11.1035 4.81808 11.1035C7.56523 11.1035 9.19943 10.1512 9.48119 7.64967H6.97354C6.76222 8.82935 6.01556 9.14204 4.81808 9.14204C3.43746 9.14204 2.50766 8.63037 2.50766 6.7116V5.26186C2.50766 3.31467 3.46564 2.85985 4.81808 2.85985C6.05782 2.85985 6.80448 3.14411 6.95945 4.38065H9.4671C9.22761 1.82229 7.57932 0.898438 4.81808 0.898438C1.78917 0.898438 0 2.19183 0 5.98673Z" fill="black"/>
<path d="M18.2616 6.5979C18.2616 8.5593 17.36 9.14204 15.5849 9.14204C13.8098 9.14204 12.9223 8.5593 12.9223 6.5979V5.36135C12.9223 3.49944 13.8098 2.85985 15.5849 2.85985C17.36 2.85985 18.2616 3.49944 18.2616 5.36135V6.5979ZM10.4005 5.90145C10.4005 9.8527 12.2461 11.1035 15.5849 11.1035C18.9378 11.1035 20.7834 9.8527 20.7834 5.90145C20.7834 2.12077 18.9378 0.898438 15.5849 0.898438C12.2461 0.898438 10.4005 2.12077 10.4005 5.90145Z" fill="black"/>
<path d="M31.3131 10.9045H33.7785V1.09742H30.0452L28.0306 7.0385L26.016 1.09742H22.2827V10.9045H24.5086V3.27203L26.6641 9.65371H29.1436L31.3131 3.22939V10.9045Z" fill="black"/>
<path d="M35.669 1.09742V10.9045H43.2624V8.90042H38.1344V6.83952H42.0791V4.90654H38.1344V3.10147H43.2061V1.09742H35.669Z" fill="black"/>
<path d="M72.633 10.9045H76V1.09742H73.7177V8.03342L70.1676 1.09742H66.7865V10.9045H69.0687V3.95426L72.633 10.9045Z" fill="black"/>
<path fill-rule="evenodd" clip-rule="evenodd" d="M60.7153 3.03455H54.4828C52.8438 3.03455 51.515 4.36329 51.515 6.00238C51.515 7.64146 52.8438 8.9702 54.4828 8.9702H60.7153C62.3544 8.9702 63.6831 7.64146 63.6831 6.00238C63.6831 4.36329 62.3544 3.03455 60.7153 3.03455ZM54.4828 1.10547C51.7784 1.10547 49.5859 3.29789 49.5859 6.00238C49.5859 8.70686 51.7784 10.8993 54.4828 10.8993H60.7153C63.4198 10.8993 65.6122 8.70686 65.6122 6.00238C65.6122 3.29789 63.4198 1.10547 60.7153 1.10547H54.4828Z" fill="black"/>
<path fill-rule="evenodd" clip-rule="evenodd" d="M57.7474 6.00238C57.7474 7.64146 59.0762 8.9702 60.7153 8.9702C62.3543 8.9702 63.6831 7.64146 63.6831 6.00238C63.6831 4.36329 62.3543 3.03455 60.7153 3.03455C59.0762 3.03455 57.7474 4.36329 57.7474 6.00238ZM60.7153 1.10547C58.0108 1.10547 55.8184 3.29789 55.8184 6.00238C55.8184 8.70686 58.0108 10.8993 60.7153 10.8993C63.4198 10.8993 65.6122 8.70686 65.6122 6.00238C65.6122 3.29789 63.4198 1.10547 60.7153 1.10547Z" fill="black"/>
</svg>
