<svg width="69" height="40" viewBox="0 0 69 40" fill="none" xmlns="http://www.w3.org/2000/svg">
<path fill-rule="evenodd" clip-rule="evenodd" d="M46.1214 8.59826C45.5904 8.45208 44.448 8.08698 43.3344 7.7311L43.2927 7.71779L43.1843 7.68316C41.8971 7.27203 40.6957 6.88829 40.2074 6.76642C38.869 6.43186 37.6454 6.04428 36.4631 5.6691L36.4587 5.66772C33.9946 4.88689 31.666 4.14902 28.7372 4.01693C25.5056 3.87167 20.7173 4.65233 17.7868 6.70798C17.3035 6.89843 16.7501 7.0597 16.1651 7.23019L16.1311 7.24011L16.1131 7.24534C15.0712 7.54799 13.9948 7.86065 13.1441 8.38906C12.4304 8.83101 11.9683 9.42029 11.5219 9.99097C11.2011 10.4006 10.8973 10.7874 10.5101 11.1151C8.66825 12.6716 7.06096 14.4456 5.73552 16.3917L3.95003 17.8126C2.89828 18.2538 1.72028 18.7598 0.881129 19.7056C0.0204769 20.6749 -0.400942 22.3318 0.513907 23.4932C1.27332 24.4584 2.59325 24.658 3.57442 24.5224C4.46146 24.3998 5.25724 24.046 6.02597 23.7025C6.13435 23.6543 6.24345 23.6061 6.35184 23.5572C6.72262 23.3941 7.0984 23.2412 7.47634 23.0953C7.45708 23.3252 7.46707 23.5641 7.51128 23.803C7.61752 24.3764 7.89989 24.8425 8.28424 25.082C8.63507 25.3003 9.0572 25.4097 9.51498 25.4097C9.9257 25.4097 10.3664 25.3216 10.8099 25.1454C12.0734 24.6428 13.5637 23.1531 13.988 21.4701C14.0193 21.4659 14.05 21.4625 14.0821 21.4584C14.2903 22.3237 14.7466 22.8097 15.126 23.072C15.526 23.3494 16.0109 23.4974 16.4894 23.4974C16.657 23.4974 16.8224 23.4795 16.9842 23.4423C17.5804 23.306 18.0973 22.9536 18.4039 22.4744C18.5708 22.2142 18.7362 21.8191 18.7276 21.2925C20.2671 21.3668 21.8017 21.5671 23.3091 21.9003C24.6689 22.2005 26.1336 22.4641 27.5496 22.7175L27.6117 22.7286C29.0683 22.9908 30.5685 23.2609 31.9583 23.5731C32.3541 24.2987 32.0853 25.2797 31.5569 25.8627C30.8068 26.6909 29.6451 26.9773 28.8038 27.0716C27.9995 27.1611 27.1887 27.128 26.3309 27.0916L26.3029 27.0904C25.9999 27.0777 25.6867 27.0645 25.3761 27.0578C21.8286 26.9787 14.097 28.0464 12.2894 30.8584C11.9236 31.4271 11.8245 32.2256 12.0299 32.9415C12.37 34.1276 13.5615 35.0714 15.0646 35.3467C16.2198 35.558 17.3685 35.399 18.4802 35.2441L18.7419 35.2076C24.9513 34.3568 31.2117 34.5502 37.3521 35.7811C38.1044 35.9318 38.8509 36 39.5897 36C43.034 36 46.3393 34.5251 49.5557 33.0899L49.5569 33.0894C50.6657 32.5937 51.813 32.0829 52.9332 31.6485C54.9954 30.8494 58.7936 29.9709 64.548 28.974C64.8086 28.9288 65 28.7028 65 28.4384C65 28.1022 64.6968 27.8469 64.3655 27.9043C58.5092 28.9199 54.6335 29.8184 52.5123 30.6401C51.3657 31.0841 50.2047 31.6024 49.0839 32.1029L49.0772 32.1059C45.3386 33.7737 41.4739 35.4977 37.5808 34.7175C31.3109 33.4625 24.9199 33.2663 18.5818 34.1344L18.318 34.1709L18.3113 34.1718C17.2477 34.3195 16.2432 34.459 15.2724 34.2817C14.3832 34.1186 13.37 33.5527 13.1126 32.6543C12.9899 32.2268 13.0413 31.7484 13.2438 31.4338C14.5972 29.3287 21.4239 28.0634 25.3493 28.1467C25.6573 28.1536 25.9739 28.1667 26.2805 28.1804L26.2954 28.1811C27.1543 28.2174 28.0427 28.2549 28.9323 28.155C29.9713 28.0386 31.4166 27.6703 32.4028 26.582C33.3961 25.4853 33.5551 23.8532 32.7729 22.7861L32.6503 22.6195L32.4435 22.572C30.9439 22.2264 29.3224 21.9352 27.7538 21.6544L27.6796 21.641C26.298 21.3926 24.8731 21.1363 23.5595 20.8462C20.589 20.1901 17.5213 20.0215 14.5037 20.323H14.4959C14.493 20.323 14.4888 20.3251 14.4859 20.3251C11.5225 20.6238 8.60895 21.377 5.88359 22.5734C5.77307 22.6216 5.66183 22.6712 5.55131 22.7214C4.82469 23.0464 4.13731 23.3534 3.41355 23.4518C2.77892 23.5386 1.87335 23.4312 1.40777 22.8398C0.870841 22.1576 1.15108 21.0721 1.73365 20.4174C2.42218 19.6427 3.50526 19.188 4.46108 18.7867L4.46814 18.7838L4.54087 18.7535L6.46395 17.2238C12.254 14.4681 21.3611 12.2185 28.7177 13.386C29.0236 13.4356 29.3138 13.2339 29.3638 12.9379C29.4137 12.6419 29.2062 12.3624 28.8996 12.3142C22.0549 11.2286 13.7713 12.9923 7.84509 15.421C8.68864 14.3739 9.6199 13.3881 10.6345 12.4753C10.6445 12.4759 10.6559 12.4773 10.6659 12.4773C10.7393 12.4773 10.8149 12.4615 10.8855 12.4278C15.9918 10.0107 22.6482 8.94366 27.8455 9.70851C28.1208 9.74775 28.3739 9.56738 28.416 9.30372C28.4581 9.04006 28.2698 8.79362 27.9967 8.75299C23.2364 8.0515 17.3001 8.83285 12.34 10.7486L12.4178 10.6502L12.4237 10.6426C12.8272 10.1284 13.2084 9.64279 13.7505 9.30712C14.4726 8.85953 15.4778 8.56782 16.4493 8.2859L16.453 8.28484C16.4644 8.28208 16.4758 8.27795 16.4879 8.2752L16.4899 8.27541C16.5085 8.27741 16.5264 8.27933 16.545 8.27933C16.5992 8.27933 16.6541 8.27038 16.7076 8.25248L16.7094 8.2519C16.8273 8.21366 21.7171 6.6281 27.4884 7.0457C27.7657 7.06429 28.0039 6.86603 28.0239 6.59962C28.0445 6.33321 27.8378 6.10191 27.5618 6.08263C25.0632 5.90296 22.7494 6.07781 20.8798 6.34835C23.3569 5.41075 26.3875 5.0039 28.6813 5.10784C31.4602 5.23313 33.7177 5.94838 36.1092 6.70631L36.1447 6.71757C37.3338 7.09408 38.5635 7.48347 39.9219 7.82359C40.3809 7.9379 41.6397 8.33999 42.8713 8.73337L42.9368 8.7543L43.0357 8.78588C44.1888 9.15407 45.2656 9.49791 45.8111 9.64716C49.4841 10.6557 53.8759 11.1623 59.0342 11.161C61.9459 11.161 65.1019 10.9997 68.51 10.6768C68.788 10.6504 69 10.4166 69 10.1373C69 9.81613 68.7214 9.56537 68.4017 9.5957C59.1104 10.4771 51.7393 10.141 46.1214 8.59826ZM8.89028 24.1726C9.23681 24.3873 9.793 24.3763 10.3784 24.1436C11.2477 23.7988 12.2909 22.7792 12.7465 21.6544C11.3995 21.8829 10.0711 22.2092 8.77476 22.6347C8.61004 22.8618 8.5473 23.2432 8.61646 23.6149C8.67137 23.9158 8.79758 24.114 8.89028 24.1726ZM17.4449 21.9077C17.5611 21.7259 17.611 21.5098 17.5989 21.264C16.8025 21.2585 16.0059 21.286 15.213 21.3487C15.3264 21.7218 15.5168 22.0109 15.7792 22.1927C16.1086 22.4205 16.483 22.4433 16.724 22.3882C17.032 22.318 17.2944 22.1438 17.4449 21.9077Z" fill="currentColor"/>
<mask id="path-2-outside-1_102_41541" maskUnits="userSpaceOnUse" x="18" y="11" width="7" height="12" fill="black">
<rect fill="white" x="18" y="11" width="7" height="12"/>
<path d="M21.7778 17C21.7778 19.7614 22.7727 22 24 22H21.2222C19.9949 22 19 19.7614 19 17C19 14.2386 19.9949 12 21.2222 12H24C22.7727 12 21.7778 14.2386 21.7778 17Z"/>
</mask>
<path d="M21.7778 17C21.7778 19.7614 22.7727 22 24 22H21.2222C19.9949 22 19 19.7614 19 17C19 14.2386 19.9949 12 21.2222 12H24C22.7727 12 21.7778 14.2386 21.7778 17Z" fill="white"/>
<path d="M24 23C24.5523 23 25 22.5523 25 22C25 21.4477 24.5523 21 24 21V23ZM24 13C24.5523 13 25 12.5523 25 12C25 11.4477 24.5523 11 24 11V13ZM24 21C23.9999 21 23.9988 21.0001 23.9955 20.9993C23.9921 20.9985 23.9838 20.9963 23.9704 20.9901C23.9427 20.9773 23.8925 20.9475 23.8244 20.8827C23.6827 20.7478 23.5096 20.5054 23.3425 20.1294C23.0093 19.3799 22.7778 18.2743 22.7778 17H20.7778C20.7778 18.4871 21.0437 19.8816 21.5148 20.9417C21.7499 21.4705 22.0556 21.9603 22.4456 22.3315C22.8408 22.7075 23.3678 23 24 23V21ZM22.7778 17C22.7778 15.7257 23.0093 14.6201 23.3425 13.8706C23.5096 13.4946 23.6827 13.2522 23.8244 13.1173C23.8925 13.0525 23.9427 13.0227 23.9704 13.0099C23.9838 13.0037 23.9921 13.0015 23.9955 13.0007C23.9988 12.9999 23.9999 13 24 13V11C23.3678 11 22.8408 11.2925 22.4456 11.6685C22.0556 12.0397 21.7499 12.5295 21.5148 13.0583C21.0437 14.1184 20.7778 15.5129 20.7778 17H22.7778ZM21.2222 21C21.2221 21 21.221 21.0001 21.2178 20.9993C21.2143 20.9985 21.206 20.9963 21.1926 20.9901C21.1649 20.9773 21.1148 20.9475 21.0466 20.8827C20.9049 20.7478 20.7318 20.5054 20.5647 20.1294C20.2316 19.3799 20 18.2743 20 17H18C18 18.4871 18.2659 19.8816 18.7371 20.9417C18.9721 21.4705 19.2778 21.9603 19.6678 22.3315C20.063 22.7075 20.59 23 21.2222 23V21ZM20 17C20 15.7257 20.2316 14.6201 20.5647 13.8706C20.7318 13.4946 20.9049 13.2522 21.0466 13.1173C21.1148 13.0525 21.1649 13.0227 21.1926 13.0099C21.206 13.0037 21.2143 13.0015 21.2178 13.0007C21.221 12.9999 21.2221 13 21.2222 13V11C20.59 11 20.063 11.2925 19.6678 11.6685C19.2778 12.0397 18.9721 12.5295 18.7371 13.0583C18.2659 14.1184 18 15.5129 18 17H20ZM24 11H21.2222V13H24V11ZM21.2222 23H24V21H21.2222V23Z" fill="currentColor" mask="url(#path-2-outside-1_102_41541)"/>
</svg>
