<svg width="33" height="17" viewBox="0 0 33 17" fill="none" xmlns="http://www.w3.org/2000/svg">
<g clip-path="url(#clip0_801_30797)">
<path fill-rule="evenodd" clip-rule="evenodd" d="M17.0093 6.39585C16.9906 7.87527 18.3278 8.7009 19.3351 9.19173C20.3701 9.6954 20.7178 10.0183 20.7138 10.4687C20.7059 11.158 19.8882 11.4622 19.1228 11.4741C17.7876 11.4948 17.0113 11.1136 16.3941 10.8252L15.9131 13.0759C16.5323 13.3614 17.6789 13.6102 18.868 13.6211C21.6589 13.6211 23.485 12.2434 23.4949 10.1072C23.5057 7.39628 19.745 7.24617 19.7707 6.03439C19.7796 5.667 20.1302 5.27493 20.8985 5.17518C21.2787 5.12481 22.3285 5.0863 23.5186 5.63441L23.9857 3.45677C23.3458 3.22369 22.5231 3.0005 21.499 3.0005C18.872 3.0005 17.0242 4.39696 17.0093 6.39585ZM28.4743 3.18814C27.9647 3.18814 27.5351 3.48541 27.3435 3.94167L23.3566 13.4611H26.1456L26.7006 11.9274H30.1088L30.4308 13.4611H32.8889L30.7438 3.18814H28.4743ZM28.8644 5.96328L29.6693 9.82083H27.465L28.8644 5.96328ZM13.6278 3.18814L11.4294 13.4611H14.0871L16.2845 3.18814H13.6278ZM9.69621 3.18814L6.92995 10.1803L5.81101 4.23499C5.67966 3.57133 5.16117 3.18814 4.5854 3.18814H0.0632061L0 3.48639C0.928339 3.68786 1.98309 4.01278 2.62206 4.36041C3.01315 4.57275 3.12475 4.75842 3.25314 5.26308L5.37252 13.4611L8.18124 13.4611L12.4872 3.18814H9.69621Z" fill="#1B226F"/>
</g>
<defs>
<clipPath id="clip0_801_30797">
<rect width="33" height="17" fill="white"/>
</clipPath>
</defs>
</svg>
