<svg width="198" height="198" viewBox="0 0 198 198" fill="none" xmlns="http://www.w3.org/2000/svg">
<g clip-path="url(#clip0_787_79967)">
<mask id="mask0_787_79967" style="mask-type:alpha" maskUnits="userSpaceOnUse" x="2" y="57" width="97" height="43">
<path d="M2 99.0022L26.25 57L99 99.0022L2 99.0022Z" fill="#C4C4C4"/>
</mask>
<g mask="url(#mask0_787_79967)">
<path d="M111 74.5005C74.5 54.5005 93 68.0005 70 82.0005C47 96.0005 28 73.5 63 51" stroke="#D95B5B"/>
<path d="M-0.767389 94.02C39.3095 82.791 16.6447 86.0785 23.2948 59.9868C29.9449 33.8951 59.2613 36.6915 49.9777 77.2509" stroke="black"/>
<path d="M66.0838 122.407C89.5003 50.5 35.5002 135.5 14.8055 73.2668" stroke="black"/>
</g>
<mask id="mask1_787_79967" style="mask-type:alpha" maskUnits="userSpaceOnUse" x="50" y="15" width="49" height="85">
<path d="M50 15.1085L98.5 15.1085L98.5 99.113L50 15.1085Z" fill="#C4C4C4"/>
</mask>
<g mask="url(#mask1_787_79967)">
<path d="M125.719 97.2541C124.79 55.6442 122.348 78.4157 98.7241 65.4971C75.0997 52.5785 85.0857 24.8738 122.071 43.9347" stroke="#D95B5B"/>
<path d="M52.9312 10.2198C82.6943 39.3129 68.5148 21.3284 94.4359 14.0417C120.357 6.75496 132.593 33.5419 92.8262 45.7818" stroke="black"/>
<path d="M61.7727 82.3081C135.755 66.6338 35.1423 62.3684 78.6905 13.3296" stroke="black"/>
</g>
<mask id="mask2_787_79967" style="mask-type:alpha" maskUnits="userSpaceOnUse" x="50" y="99" width="49" height="85">
<path d="M50 183.005L98.5 183.005L98.5 99.0003L50 183.005Z" fill="#C4C4C4"/>
</mask>
<g mask="url(#mask2_787_79967)">
<path d="M125.719 100.859C124.79 142.469 122.348 119.698 98.7241 132.616C75.0997 145.535 85.0857 173.239 122.071 154.179" stroke="#D95B5B"/>
<path d="M52.9312 187.893C82.6943 158.8 68.5148 176.785 94.4359 184.072C120.357 191.358 132.593 164.571 92.8262 152.331" stroke="black"/>
<path d="M61.7727 115.805C135.755 131.479 35.1423 135.745 78.6905 184.784" stroke="black"/>
</g>
<mask id="mask3_787_79967" style="mask-type:alpha" maskUnits="userSpaceOnUse" x="98" y="57" width="97" height="43">
<path d="M195 99.0022L170.75 57L98 99.0022L195 99.0022Z" fill="#C4C4C4"/>
</mask>
<g mask="url(#mask3_787_79967)">
<path d="M86 74.5005C122.5 54.5005 104 68.0005 127 82.0005C150 96.0005 169 73.5 134 51" stroke="#D95B5B"/>
<path d="M197.767 94.02C157.69 82.791 180.355 86.0785 173.705 59.9868C167.055 33.8951 137.739 36.6915 147.022 77.2509" stroke="black"/>
<path d="M130.916 122.407C107.5 50.5 161.5 135.5 182.195 73.2668" stroke="black"/>
</g>
<mask id="mask4_787_79967" style="mask-type:alpha" maskUnits="userSpaceOnUse" x="2" y="99" width="97" height="43">
<path d="M2 99.0036L26.25 141.006L99 99.0036L2 99.0036Z" fill="#C4C4C4"/>
</mask>
<g mask="url(#mask4_787_79967)">
<path d="M111 123.505C74.5 143.505 93 130.005 70 116.005C47 102.005 28 124.506 63 147.006" stroke="#D95B5B"/>
<path d="M-0.767389 103.986C39.3095 115.215 16.6447 111.927 23.2948 138.019C29.9449 164.111 59.2613 161.314 49.9777 120.755" stroke="black"/>
<path d="M66.0838 75.5986C89.5003 147.506 35.5002 62.5059 14.8055 124.739" stroke="black"/>
</g>
<mask id="mask5_787_79967" style="mask-type:alpha" maskUnits="userSpaceOnUse" x="98" y="99" width="97" height="43">
<path d="M195 99.0036L170.75 141.006L98 99.0036L195 99.0036Z" fill="#C4C4C4"/>
</mask>
<g mask="url(#mask5_787_79967)">
<path d="M86 123.505C122.5 143.505 104 130.005 127 116.005C150 102.005 169 124.506 134 147.006" stroke="#D95B5B"/>
<path d="M197.767 103.986C157.69 115.215 180.355 111.927 173.705 138.019C167.055 164.111 137.739 161.314 147.022 120.755" stroke="black"/>
<path d="M130.916 75.5986C107.5 147.506 161.5 62.5059 182.195 124.739" stroke="black"/>
</g>
<mask id="mask6_787_79967" style="mask-type:alpha" maskUnits="userSpaceOnUse" x="26" y="15" width="73" height="85">
<path d="M50.375 15.0008L26.125 57.0031L98.875 99.0053L50.375 15.0008Z" fill="#C4C4C4"/>
</mask>
<g mask="url(#mask6_787_79967)">
<path d="M83.6557 121.648C48.0852 100.038 69.0265 109.31 69.6509 82.3912C70.2753 55.4726 41.2893 50.2683 39.3037 91.8292" stroke="#D95B5B"/>
<path d="M44.6765 15.0943C54.9902 55.4165 46.5049 34.1444 27.2339 52.9494C7.96287 71.7544 25.0428 95.7449 55.5265 67.4254" stroke="black"/>
<path d="M102.686 58.7954C52.1208 115.028 98.7329 25.7629 34.49 38.9573" stroke="black"/>
</g>
<mask id="mask7_787_79967" style="mask-type:alpha" maskUnits="userSpaceOnUse" x="26" y="99" width="73" height="85">
<path d="M50.375 183.005L26.125 141.003L98.875 99.0006L50.375 183.005Z" fill="#C4C4C4"/>
</mask>
<g mask="url(#mask7_787_79967)">
<path d="M83.6557 76.3577C48.0852 97.9676 69.0265 88.6961 69.6509 115.615C70.2753 142.533 41.2893 147.738 39.3037 106.177" stroke="#D95B5B"/>
<path d="M44.6765 182.912C54.9902 142.589 46.5049 163.861 27.2339 145.056C7.96287 126.251 25.0428 102.261 55.5265 130.58" stroke="black"/>
<path d="M102.686 139.21C52.1208 82.9775 98.7329 172.243 34.49 159.049" stroke="black"/>
</g>
<mask id="mask8_787_79967" style="mask-type:alpha" maskUnits="userSpaceOnUse" x="26" y="15" width="73" height="85">
<path d="M50.375 15.0008L26.125 57.0031L98.875 99.0053L50.375 15.0008Z" fill="#C4C4C4"/>
</mask>
<g mask="url(#mask8_787_79967)">
<path d="M83.6557 121.648C48.0852 100.038 69.0265 109.31 69.6509 82.3912C70.2753 55.4726 41.2893 50.2683 39.3037 91.8292" stroke="#D95B5B"/>
<path d="M44.6765 15.0943C54.9902 55.4165 46.5049 34.1444 27.2339 52.9494C7.96287 71.7544 25.0428 95.7449 55.5265 67.4254" stroke="black"/>
<path d="M102.686 58.7954C52.1208 115.028 98.7329 25.7629 34.49 38.9573" stroke="black"/>
</g>
<mask id="mask9_787_79967" style="mask-type:alpha" maskUnits="userSpaceOnUse" x="98" y="15" width="49" height="85">
<path d="M146.936 15.0011L98.4355 15.0011L98.4355 99.0056L146.936 15.0011Z" fill="#C4C4C4"/>
</mask>
<g mask="url(#mask9_787_79967)">
<path d="M71.2163 97.1467C72.1458 55.5368 74.5871 78.3083 98.2115 65.3897C121.836 52.4711 111.85 24.7664 74.8643 43.8273" stroke="#D95B5B"/>
<path d="M144.004 10.1124C114.241 39.2055 128.421 21.221 102.5 13.9343C76.5785 6.64754 64.3421 33.4345 104.109 45.6744" stroke="black"/>
<path d="M135.163 82.2007C61.181 66.5264 161.793 62.261 118.245 13.2222" stroke="black"/>
</g>
<mask id="mask10_787_79967" style="mask-type:alpha" maskUnits="userSpaceOnUse" x="98" y="99" width="49" height="85">
<path d="M146.936 183.112L98.4355 183.112L98.4355 99.1077L146.936 183.112Z" fill="#C4C4C4"/>
</mask>
<g mask="url(#mask10_787_79967)">
<path d="M71.2163 100.967C72.1458 142.576 74.5871 119.805 98.2115 132.724C121.836 145.642 111.85 173.347 74.8643 154.286" stroke="#D95B5B"/>
<path d="M144.004 188.001C114.241 158.908 128.421 176.892 102.5 184.179C76.5785 191.466 64.3421 164.679 104.109 152.439" stroke="black"/>
<path d="M135.163 115.913C61.181 131.587 161.793 135.852 118.245 184.891" stroke="black"/>
</g>
<mask id="mask11_787_79967" style="mask-type:alpha" maskUnits="userSpaceOnUse" x="98" y="15" width="73" height="85">
<path d="M146.625 15.0008L170.875 57.0031L98.125 99.0053L146.625 15.0008Z" fill="#C4C4C4"/>
</mask>
<g mask="url(#mask11_787_79967)">
<path d="M113.344 121.648C148.915 100.038 127.973 109.31 127.349 82.3912C126.725 55.4726 155.711 50.2683 157.696 91.8292" stroke="#D95B5B"/>
<path d="M152.324 15.0943C142.01 55.4165 150.495 34.1444 169.766 52.9494C189.037 71.7544 171.957 95.7449 141.473 67.4254" stroke="black"/>
<path d="M94.3139 58.7954C144.879 115.028 98.2671 25.7629 162.51 38.9573" stroke="black"/>
</g>
<mask id="mask12_787_79967" style="mask-type:alpha" maskUnits="userSpaceOnUse" x="26" y="99" width="73" height="85">
<path d="M50.375 183.005L26.125 141.003L98.875 99.0006L50.375 183.005Z" fill="#C4C4C4"/>
</mask>
<g mask="url(#mask12_787_79967)">
<path d="M83.6557 76.3577C48.0852 97.9676 69.0265 88.6961 69.6509 115.615C70.2753 142.533 41.2893 147.738 39.3037 106.177" stroke="#D95B5B"/>
<path d="M44.6765 182.912C54.9902 142.589 46.5049 163.861 27.2339 145.056C7.96287 126.251 25.0428 102.261 55.5265 130.58" stroke="black"/>
<path d="M102.686 139.21C52.1208 82.9775 98.7329 172.243 34.49 159.049" stroke="black"/>
</g>
<mask id="mask13_787_79967" style="mask-type:alpha" maskUnits="userSpaceOnUse" x="98" y="99" width="73" height="85">
<path d="M146.625 183.005L170.875 141.003L98.125 99.0006L146.625 183.005Z" fill="#C4C4C4"/>
</mask>
<g mask="url(#mask13_787_79967)">
<path d="M113.344 76.3577C148.915 97.9676 127.973 88.6961 127.349 115.615C126.725 142.533 155.711 147.738 157.696 106.177" stroke="#D95B5B"/>
<path d="M152.324 182.912C142.01 142.589 150.495 163.861 169.766 145.056C189.037 126.251 171.957 102.261 141.473 130.58" stroke="black"/>
<path d="M94.3139 139.21C144.879 82.9775 98.2671 172.243 162.51 159.049" stroke="black"/>
</g>
<mask id="mask14_787_79967" style="mask-type:alpha" maskUnits="userSpaceOnUse" x="146" y="-27" width="97" height="43">
<path d="M146 15.0022L170.25 -27L243 15.0022L146 15.0022Z" fill="#C4C4C4"/>
</mask>
<g mask="url(#mask14_787_79967)">
<path d="M255 -9.49953C218.5 -29.4995 237 -15.9995 214 -1.99953C191 12.0005 172 -10.5 207 -33" stroke="#D95B5B"/>
<path d="M143.233 10.02C183.31 -1.20903 160.645 2.07851 167.295 -24.0132C173.945 -50.1049 203.261 -47.3085 193.978 -6.74907" stroke="black"/>
<path d="M210.084 38.4073C233.5 -33.5 179.5 51.5 158.805 -10.7332" stroke="black"/>
</g>
<mask id="mask15_787_79967" style="mask-type:alpha" maskUnits="userSpaceOnUse" x="194" y="-69" width="49" height="85">
<path d="M194 -68.8915L242.5 -68.8915L242.5 15.113L194 -68.8915Z" fill="#C4C4C4"/>
</mask>
<g mask="url(#mask15_787_79967)">
<path d="M205.773 -1.69186C279.755 -17.3662 179.142 -21.6316 222.69 -70.6704" stroke="black"/>
</g>
<mask id="mask16_787_79967" style="mask-type:alpha" maskUnits="userSpaceOnUse" x="194" y="15" width="49" height="85">
<path d="M194 99.0047L242.5 99.0047L242.5 15.0003L194 99.0047Z" fill="#C4C4C4"/>
</mask>
<g mask="url(#mask16_787_79967)">
<path d="M196.931 103.893C226.694 74.8004 212.515 92.7849 238.436 100.072C264.357 107.358 276.593 80.5714 236.826 68.3314" stroke="black"/>
<path d="M205.773 31.8051C279.755 47.4795 179.142 51.7449 222.69 100.784" stroke="black"/>
</g>
<mask id="mask17_787_79967" style="mask-type:alpha" maskUnits="userSpaceOnUse" x="146" y="15" width="97" height="43">
<path d="M146 15.0036L170.25 57.0059L243 15.0036L146 15.0036Z" fill="#C4C4C4"/>
</mask>
<g mask="url(#mask17_787_79967)">
<path d="M255 39.5054C218.5 59.5054 237 46.0054 214 32.0054C191 18.0054 172 40.5059 207 63.0059" stroke="#D95B5B"/>
<path d="M143.233 19.9858C183.31 31.2149 160.645 27.9273 167.295 54.019C173.945 80.1107 203.261 77.3143 193.978 36.7549" stroke="black"/>
<path d="M210.084 -8.4014C233.5 63.5059 179.5 -21.4941 158.805 40.7391" stroke="black"/>
</g>
<mask id="mask18_787_79967" style="mask-type:alpha" maskUnits="userSpaceOnUse" x="170" y="-69" width="73" height="85">
<path d="M194.375 -68.9992L170.125 -26.9969L242.875 15.0053L194.375 -68.9992Z" fill="#C4C4C4"/>
</mask>
<g mask="url(#mask18_787_79967)">
<path d="M227.656 37.6482C192.085 16.0383 213.027 25.3097 213.651 -1.60884C214.275 -28.5274 185.289 -33.7317 183.304 7.82922" stroke="#D95B5B"/>
<path d="M188.676 -68.9057C198.99 -28.5835 190.505 -49.8556 171.234 -31.0506C151.963 -12.2456 169.043 11.7449 199.527 -16.5746" stroke="black"/>
</g>
<mask id="mask19_787_79967" style="mask-type:alpha" maskUnits="userSpaceOnUse" x="170" y="15" width="73" height="85">
<path d="M194.375 99.005L170.125 57.0028L242.875 15.0006L194.375 99.005Z" fill="#C4C4C4"/>
</mask>
<g mask="url(#mask19_787_79967)">
<path d="M227.656 -7.64234C192.085 13.9676 213.027 4.69611 213.651 31.6147C214.275 58.5333 185.289 63.7375 183.304 22.1766" stroke="#D95B5B"/>
<path d="M188.676 98.9116C198.99 58.5894 190.505 79.8614 171.234 61.0565C151.963 42.2515 169.043 18.2609 199.527 46.5804" stroke="black"/>
<path d="M246.686 55.2104C196.121 -1.02248 242.733 88.2429 178.49 75.0485" stroke="black"/>
</g>
<mask id="mask20_787_79967" style="mask-type:alpha" maskUnits="userSpaceOnUse" x="170" y="-69" width="73" height="85">
<path d="M194.375 -68.9992L170.125 -26.9969L242.875 15.0053L194.375 -68.9992Z" fill="#C4C4C4"/>
</mask>
<g mask="url(#mask20_787_79967)">
<path d="M227.656 37.6482C192.085 16.0383 213.027 25.3097 213.651 -1.60884C214.275 -28.5274 185.289 -33.7317 183.304 7.82922" stroke="#D95B5B"/>
<path d="M188.676 -68.9057C198.99 -28.5835 190.505 -49.8556 171.234 -31.0506C151.963 -12.2456 169.043 11.7449 199.527 -16.5746" stroke="black"/>
</g>
<mask id="mask21_787_79967" style="mask-type:alpha" maskUnits="userSpaceOnUse" x="170" y="15" width="73" height="85">
<path d="M194.375 99.005L170.125 57.0028L242.875 15.0006L194.375 99.005Z" fill="#C4C4C4"/>
</mask>
<g mask="url(#mask21_787_79967)">
<path d="M227.656 -7.64234C192.085 13.9676 213.027 4.69611 213.651 31.6147C214.275 58.5333 185.289 63.7375 183.304 22.1766" stroke="#D95B5B"/>
<path d="M188.676 98.9116C198.99 58.5894 190.505 79.8614 171.234 61.0565C151.963 42.2515 169.043 18.2609 199.527 46.5804" stroke="black"/>
<path d="M246.686 55.2104C196.121 -1.02248 242.733 88.2429 178.49 75.0485" stroke="black"/>
</g>
<mask id="mask22_787_79967" style="mask-type:alpha" maskUnits="userSpaceOnUse" x="-46" y="-27" width="97" height="43">
<path d="M51 15.0022L26.75 -27L-46 15.0022L51 15.0022Z" fill="#C4C4C4"/>
</mask>
<g mask="url(#mask22_787_79967)">
<path d="M-58 -9.49953C-21.5 -29.4995 -40 -15.9995 -17 -1.99953C6 12.0005 25 -10.5 -10 -33" stroke="#D95B5B"/>
<path d="M53.7674 10.02C13.6905 -1.20903 36.3553 2.07851 29.7052 -24.0132C23.0551 -50.1049 -6.26128 -47.3085 3.02225 -6.74907" stroke="black"/>
<path d="M-13.0838 38.4073C-36.5003 -33.5 17.4998 51.5 38.1945 -10.7332" stroke="black"/>
</g>
<mask id="mask23_787_79967" style="mask-type:alpha" maskUnits="userSpaceOnUse" x="-46" y="15" width="97" height="43">
<path d="M51 15.0036L26.75 57.0059L-46 15.0036L51 15.0036Z" fill="#C4C4C4"/>
</mask>
<g mask="url(#mask23_787_79967)">
<path d="M-58 39.5054C-21.5 59.5054 -40 46.0054 -17 32.0054C6 18.0054 25 40.5059 -10 63.0059" stroke="#D95B5B"/>
<path d="M53.7674 19.9858C13.6905 31.2149 36.3553 27.9273 29.7052 54.019C23.0551 80.1107 -6.26128 77.3143 3.02225 36.7549" stroke="black"/>
<path d="M-13.0838 -8.4014C-36.5003 63.5059 17.4998 -21.4941 38.1945 40.7391" stroke="black"/>
</g>
<mask id="mask24_787_79967" style="mask-type:alpha" maskUnits="userSpaceOnUse" x="-46" y="-69" width="49" height="85">
<path d="M2.93555 -68.9989L-45.5645 -68.9989L-45.5645 15.0056L2.93555 -68.9989Z" fill="#C4C4C4"/>
</mask>
<g mask="url(#mask24_787_79967)">
<path d="M-8.83718 -1.79928C-82.819 -17.4736 17.7932 -21.739 -25.7549 -70.7778" stroke="black"/>
</g>
<mask id="mask25_787_79967" style="mask-type:alpha" maskUnits="userSpaceOnUse" x="-46" y="15" width="49" height="85">
<path d="M2.93555 99.1122L-45.5645 99.1122L-45.5645 15.1077L2.93555 99.1122Z" fill="#C4C4C4"/>
</mask>
<g mask="url(#mask25_787_79967)">
<path d="M0.00438626 104.001C-29.7587 74.9078 -15.5792 92.8923 -41.5004 100.179C-67.4215 107.466 -79.6579 80.6788 -39.8907 68.4389" stroke="black"/>
<path d="M-8.83718 31.9126C-82.819 47.5869 17.7932 51.8523 -25.7549 100.891" stroke="black"/>
</g>
<mask id="mask26_787_79967" style="mask-type:alpha" maskUnits="userSpaceOnUse" x="-46" y="-69" width="73" height="85">
<path d="M2.625 -68.9992L26.875 -26.9969L-45.875 15.0053L2.625 -68.9992Z" fill="#C4C4C4"/>
</mask>
<g mask="url(#mask26_787_79967)">
<path d="M-30.6557 37.6482C4.9148 16.0383 -16.0265 25.3097 -16.6509 -1.60884C-17.2753 -28.5274 11.7107 -33.7317 13.6963 7.82922" stroke="#D95B5B"/>
<path d="M8.32355 -68.9057C-1.99023 -28.5835 6.49506 -49.8556 25.7661 -31.0506C45.0371 -12.2456 27.9572 11.7449 -2.52654 -16.5746" stroke="black"/>
</g>
<mask id="mask27_787_79967" style="mask-type:alpha" maskUnits="userSpaceOnUse" x="-46" y="15" width="73" height="85">
<path d="M2.625 99.005L26.875 57.0028L-45.875 15.0006L2.625 99.005Z" fill="#C4C4C4"/>
</mask>
<g mask="url(#mask27_787_79967)">
<path d="M-30.6557 -7.64234C4.9148 13.9676 -16.0265 4.69611 -16.6509 31.6147C-17.2753 58.5333 11.7107 63.7375 13.6963 22.1766" stroke="#D95B5B"/>
<path d="M8.32355 98.9116C-1.99023 58.5894 6.49506 79.8614 25.7661 61.0565C45.0371 42.2515 27.9572 18.2609 -2.52654 46.5804" stroke="black"/>
<path d="M-49.6861 55.2104C0.879194 -1.02248 -45.7329 88.2429 18.51 75.0485" stroke="black"/>
</g>
<mask id="mask28_787_79967" style="mask-type:alpha" maskUnits="userSpaceOnUse" x="146" y="140" width="97" height="43">
<path d="M146 182.002L170.25 140L243 182.002L146 182.002Z" fill="#C4C4C4"/>
</mask>
<g mask="url(#mask28_787_79967)">
<path d="M255 157.5C218.5 137.5 237 151 214 165C191 179 172 156.5 207 134" stroke="#D95B5B"/>
<path d="M143.233 177.02C183.31 165.791 160.645 169.079 167.295 142.987C173.945 116.895 203.261 119.692 193.978 160.251" stroke="black"/>
<path d="M210.084 205.407C233.5 133.5 179.5 218.5 158.805 156.267" stroke="black"/>
</g>
<mask id="mask29_787_79967" style="mask-type:alpha" maskUnits="userSpaceOnUse" x="194" y="98" width="49" height="85">
<path d="M194 98.1085L242.5 98.1085L242.5 182.113L194 98.1085Z" fill="#C4C4C4"/>
</mask>
<g mask="url(#mask29_787_79967)">
<path d="M196.931 93.2198C226.694 122.313 212.515 104.328 238.436 97.0417C264.357 89.755 276.593 116.542 236.826 128.782" stroke="black"/>
<path d="M205.773 165.308C279.755 149.634 179.142 145.368 222.69 96.3296" stroke="black"/>
</g>
<mask id="mask30_787_79967" style="mask-type:alpha" maskUnits="userSpaceOnUse" x="194" y="182" width="49" height="85">
<path d="M194 266.005L242.5 266.005L242.5 182L194 266.005Z" fill="#C4C4C4"/>
</mask>
<g mask="url(#mask30_787_79967)">
<path d="M205.773 198.805C279.755 214.479 179.142 218.745 222.69 267.784" stroke="black"/>
</g>
<mask id="mask31_787_79967" style="mask-type:alpha" maskUnits="userSpaceOnUse" x="146" y="182" width="97" height="43">
<path d="M146 182.004L170.25 224.006L243 182.004L146 182.004Z" fill="#C4C4C4"/>
</mask>
<g mask="url(#mask31_787_79967)">
<path d="M255 206.505C218.5 226.505 237 213.005 214 199.005C191 185.005 172 207.506 207 230.006" stroke="#D95B5B"/>
<path d="M143.233 186.986C183.31 198.215 160.645 194.927 167.295 221.019C173.945 247.111 203.261 244.314 193.978 203.755" stroke="black"/>
<path d="M210.084 158.599C233.5 230.506 179.5 145.506 158.805 207.739" stroke="black"/>
</g>
<mask id="mask32_787_79967" style="mask-type:alpha" maskUnits="userSpaceOnUse" x="170" y="98" width="73" height="85">
<path d="M194.375 98.0008L170.125 140.003L242.875 182.005L194.375 98.0008Z" fill="#C4C4C4"/>
</mask>
<g mask="url(#mask32_787_79967)">
<path d="M227.656 204.648C192.085 183.038 213.027 192.31 213.651 165.391C214.275 138.473 185.289 133.268 183.304 174.829" stroke="#D95B5B"/>
<path d="M188.676 98.0943C198.99 138.416 190.505 117.144 171.234 135.949C151.963 154.754 169.043 178.745 199.527 150.425" stroke="black"/>
<path d="M246.686 141.795C196.121 198.028 242.733 108.763 178.49 121.957" stroke="black"/>
</g>
<mask id="mask33_787_79967" style="mask-type:alpha" maskUnits="userSpaceOnUse" x="170" y="182" width="73" height="85">
<path d="M194.375 266.005L170.125 224.003L242.875 182.001L194.375 266.005Z" fill="#C4C4C4"/>
</mask>
<g mask="url(#mask33_787_79967)">
<path d="M227.656 159.358C192.085 180.968 213.027 171.696 213.651 198.615C214.275 225.533 185.289 230.738 183.304 189.177" stroke="#D95B5B"/>
<path d="M188.676 265.912C198.99 225.589 190.505 246.861 171.234 228.056C151.963 209.251 169.043 185.261 199.527 213.58" stroke="black"/>
</g>
<mask id="mask34_787_79967" style="mask-type:alpha" maskUnits="userSpaceOnUse" x="170" y="98" width="73" height="85">
<path d="M194.375 98.0008L170.125 140.003L242.875 182.005L194.375 98.0008Z" fill="#C4C4C4"/>
</mask>
<g mask="url(#mask34_787_79967)">
<path d="M227.656 204.648C192.085 183.038 213.027 192.31 213.651 165.391C214.275 138.473 185.289 133.268 183.304 174.829" stroke="#D95B5B"/>
<path d="M188.676 98.0943C198.99 138.416 190.505 117.144 171.234 135.949C151.963 154.754 169.043 178.745 199.527 150.425" stroke="black"/>
<path d="M246.686 141.795C196.121 198.028 242.733 108.763 178.49 121.957" stroke="black"/>
</g>
<mask id="mask35_787_79967" style="mask-type:alpha" maskUnits="userSpaceOnUse" x="170" y="182" width="73" height="85">
<path d="M194.375 266.005L170.125 224.003L242.875 182.001L194.375 266.005Z" fill="#C4C4C4"/>
</mask>
<g mask="url(#mask35_787_79967)">
<path d="M227.656 159.358C192.085 180.968 213.027 171.696 213.651 198.615C214.275 225.533 185.289 230.738 183.304 189.177" stroke="#D95B5B"/>
<path d="M188.676 265.912C198.99 225.589 190.505 246.861 171.234 228.056C151.963 209.251 169.043 185.261 199.527 213.58" stroke="black"/>
</g>
<mask id="mask36_787_79967" style="mask-type:alpha" maskUnits="userSpaceOnUse" x="-46" y="141" width="97" height="43">
<path d="M51 183.002L26.75 141L-46 183.002L51 183.002Z" fill="#C4C4C4"/>
</mask>
<g mask="url(#mask36_787_79967)">
<path d="M-58 158.5C-21.5 138.5 -40 152 -17 166C6 180 25 157.5 -10 135" stroke="#D95B5B"/>
<path d="M53.7674 178.02C13.6905 166.791 36.3553 170.079 29.7052 143.987C23.0551 117.895 -6.26128 120.692 3.02225 161.251" stroke="black"/>
<path d="M-13.0838 206.407C-36.5003 134.5 17.4998 219.5 38.1945 157.267" stroke="black"/>
</g>
<mask id="mask37_787_79967" style="mask-type:alpha" maskUnits="userSpaceOnUse" x="-46" y="183" width="97" height="43">
<path d="M51 183.004L26.75 225.006L-46 183.004L51 183.004Z" fill="#C4C4C4"/>
</mask>
<g mask="url(#mask37_787_79967)">
<path d="M-58 207.505C-21.5 227.505 -40 214.005 -17 200.005C6 186.005 25 208.506 -10 231.006" stroke="#D95B5B"/>
<path d="M53.7674 187.986C13.6905 199.215 36.3553 195.927 29.7052 222.019C23.0551 248.111 -6.26128 245.314 3.02225 204.755" stroke="black"/>
<path d="M-13.0838 159.599C-36.5003 231.506 17.4998 146.506 38.1945 208.739" stroke="black"/>
</g>
<mask id="mask38_787_79967" style="mask-type:alpha" maskUnits="userSpaceOnUse" x="-46" y="99" width="49" height="85">
<path d="M2.93555 99.0011L-45.5645 99.0011L-45.5645 183.006L2.93555 99.0011Z" fill="#C4C4C4"/>
</mask>
<g mask="url(#mask38_787_79967)">
<path d="M0.00438626 94.1124C-29.7587 123.205 -15.5792 105.221 -41.5004 97.9343C-67.4215 90.6475 -79.6579 117.434 -39.8907 129.674" stroke="black"/>
<path d="M-8.83718 166.201C-82.819 150.526 17.7932 146.261 -25.7549 97.2222" stroke="black"/>
</g>
<mask id="mask39_787_79967" style="mask-type:alpha" maskUnits="userSpaceOnUse" x="-46" y="183" width="49" height="85">
<path d="M2.93555 267.112L-45.5645 267.112L-45.5645 183.108L2.93555 267.112Z" fill="#C4C4C4"/>
</mask>
<g mask="url(#mask39_787_79967)">
<path d="M-8.83718 199.913C-82.819 215.587 17.7932 219.852 -25.7549 268.891" stroke="black"/>
</g>
<mask id="mask40_787_79967" style="mask-type:alpha" maskUnits="userSpaceOnUse" x="-46" y="99" width="73" height="85">
<path d="M2.625 99.0008L26.875 141.003L-45.875 183.005L2.625 99.0008Z" fill="#C4C4C4"/>
</mask>
<g mask="url(#mask40_787_79967)">
<path d="M-30.6557 205.648C4.9148 184.038 -16.0265 193.31 -16.6509 166.391C-17.2753 139.473 11.7107 134.268 13.6963 175.829" stroke="#D95B5B"/>
<path d="M8.32355 99.0943C-1.99023 139.416 6.49506 118.144 25.7661 136.949C45.0371 155.754 27.9572 179.745 -2.52654 151.425" stroke="black"/>
<path d="M-49.6861 142.795C0.879194 199.028 -45.7329 109.763 18.51 122.957" stroke="black"/>
</g>
<mask id="mask41_787_79967" style="mask-type:alpha" maskUnits="userSpaceOnUse" x="-46" y="183" width="73" height="85">
<path d="M2.625 267.005L26.875 225.003L-45.875 183.001L2.625 267.005Z" fill="#C4C4C4"/>
</mask>
<g mask="url(#mask41_787_79967)">
<path d="M-30.6557 160.358C4.9148 181.968 -16.0265 172.696 -16.6509 199.615C-17.2753 226.533 11.7107 231.738 13.6963 190.177" stroke="#D95B5B"/>
<path d="M8.32355 266.912C-1.99023 226.589 6.49506 247.861 25.7661 229.056C45.0371 210.251 27.9572 186.261 -2.52654 214.58" stroke="black"/>
</g>
<mask id="mask42_787_79967" style="mask-type:alpha" maskUnits="userSpaceOnUse" x="50" y="183" width="49" height="85">
<path d="M50 183.109L98.5 183.109L98.5 267.113L50 183.109Z" fill="#C4C4C4"/>
</mask>
<g mask="url(#mask42_787_79967)">
<path d="M125.719 265.254C124.79 223.644 122.348 246.416 98.7241 233.497C75.0997 220.579 85.0857 192.874 122.071 211.935" stroke="#D95B5B"/>
<path d="M52.9312 178.22C82.6943 207.313 68.5148 189.328 94.4359 182.042C120.357 174.755 132.593 201.542 92.8262 213.782" stroke="black"/>
<path d="M61.7727 250.308C135.755 234.634 35.1423 230.368 78.6905 181.33" stroke="black"/>
</g>
<mask id="mask43_787_79967" style="mask-type:alpha" maskUnits="userSpaceOnUse" x="26" y="183" width="73" height="85">
<path d="M50.375 183.001L26.125 225.003L98.875 267.005L50.375 183.001Z" fill="#C4C4C4"/>
</mask>
<g mask="url(#mask43_787_79967)">
<path d="M44.6765 183.094C54.9902 223.416 46.5049 202.144 27.2339 220.949C7.96287 239.754 25.0428 263.745 55.5265 235.425" stroke="black"/>
</g>
<mask id="mask44_787_79967" style="mask-type:alpha" maskUnits="userSpaceOnUse" x="26" y="183" width="73" height="85">
<path d="M50.375 183.001L26.125 225.003L98.875 267.005L50.375 183.001Z" fill="#C4C4C4"/>
</mask>
<g mask="url(#mask44_787_79967)">
<path d="M44.6765 183.094C54.9902 223.416 46.5049 202.144 27.2339 220.949C7.96287 239.754 25.0428 263.745 55.5265 235.425" stroke="black"/>
</g>
<mask id="mask45_787_79967" style="mask-type:alpha" maskUnits="userSpaceOnUse" x="98" y="183" width="49" height="85">
<path d="M146.936 183.001L98.4355 183.001L98.4355 267.006L146.936 183.001Z" fill="#C4C4C4"/>
</mask>
<g mask="url(#mask45_787_79967)">
<path d="M71.2163 265.147C72.1458 223.537 74.5871 246.308 98.2115 233.39C121.836 220.471 111.85 192.766 74.8643 211.827" stroke="#D95B5B"/>
<path d="M144.004 178.112C114.241 207.205 128.421 189.221 102.5 181.934C76.5785 174.648 64.3421 201.434 104.109 213.674" stroke="black"/>
<path d="M135.163 250.201C61.181 234.526 161.793 230.261 118.245 181.222" stroke="black"/>
</g>
<mask id="mask46_787_79967" style="mask-type:alpha" maskUnits="userSpaceOnUse" x="98" y="183" width="73" height="85">
<path d="M146.625 183.001L170.875 225.003L98.125 267.005L146.625 183.001Z" fill="#C4C4C4"/>
</mask>
<g mask="url(#mask46_787_79967)">
<path d="M152.324 183.094C142.01 223.416 150.495 202.144 169.766 220.949C189.037 239.754 171.957 263.745 141.473 235.425" stroke="black"/>
</g>
<mask id="mask47_787_79967" style="mask-type:alpha" maskUnits="userSpaceOnUse" x="50" y="-69" width="49" height="85">
<path d="M50 15.0047L98.5 15.0047L98.5 -68.9997L50 15.0047Z" fill="#C4C4C4"/>
</mask>
<g mask="url(#mask47_787_79967)">
<path d="M125.719 -67.1409C124.79 -25.5309 122.348 -48.3024 98.7241 -35.3838C75.0997 -22.4652 85.0857 5.23949 122.071 -13.8214" stroke="#D95B5B"/>
<path d="M52.9312 19.8935C82.6943 -9.19961 68.5148 8.78489 94.4359 16.0716C120.357 23.3583 132.593 -3.42863 92.8262 -15.6686" stroke="black"/>
<path d="M61.7727 -52.1949C135.755 -36.5205 35.1423 -32.2551 78.6905 16.7837" stroke="black"/>
</g>
<mask id="mask48_787_79967" style="mask-type:alpha" maskUnits="userSpaceOnUse" x="26" y="-69" width="73" height="85">
<path d="M50.375 15.005L26.125 -26.9972L98.875 -68.9994L50.375 15.005Z" fill="#C4C4C4"/>
</mask>
<g mask="url(#mask48_787_79967)">
<path d="M44.6765 14.9116C54.9902 -25.4106 46.5049 -4.13855 27.2339 -22.9435C7.96287 -41.7485 25.0428 -65.7391 55.5265 -37.4196" stroke="black"/>
</g>
<mask id="mask49_787_79967" style="mask-type:alpha" maskUnits="userSpaceOnUse" x="98" y="-69" width="49" height="85">
<path d="M146.936 15.1122L98.4355 15.1122L98.4355 -68.8923L146.936 15.1122Z" fill="#C4C4C4"/>
</mask>
<g mask="url(#mask49_787_79967)">
<path d="M71.2163 -67.0334C72.1458 -25.4235 74.5871 -48.195 98.2115 -35.2764C121.836 -22.3578 111.85 5.34691 74.8643 -13.714" stroke="#D95B5B"/>
<path d="M144.004 20.0009C114.241 -9.09219 128.421 8.89231 102.5 16.179C76.5785 23.4657 64.3421 -3.3212 104.109 -15.5611" stroke="black"/>
<path d="M135.163 -52.0874C61.181 -36.4131 161.793 -32.1477 118.245 16.8911" stroke="black"/>
</g>
<mask id="mask50_787_79967" style="mask-type:alpha" maskUnits="userSpaceOnUse" x="26" y="-69" width="73" height="85">
<path d="M50.375 15.005L26.125 -26.9972L98.875 -68.9994L50.375 15.005Z" fill="#C4C4C4"/>
</mask>
<g mask="url(#mask50_787_79967)">
<path d="M44.6765 14.9116C54.9902 -25.4106 46.5049 -4.13855 27.2339 -22.9435C7.96287 -41.7485 25.0428 -65.7391 55.5265 -37.4196" stroke="black"/>
</g>
<mask id="mask51_787_79967" style="mask-type:alpha" maskUnits="userSpaceOnUse" x="98" y="-69" width="73" height="85">
<path d="M146.625 15.005L170.875 -26.9972L98.125 -68.9994L146.625 15.005Z" fill="#C4C4C4"/>
</mask>
<g mask="url(#mask51_787_79967)">
<path d="M152.324 14.9116C142.01 -25.4106 150.495 -4.13855 169.766 -22.9435C189.037 -41.7485 171.957 -65.7391 141.473 -37.4196" stroke="black"/>
</g>
</g>
<defs>
<clipPath id="clip0_787_79967">
<path d="M0 99C0 44.3238 44.3238 0 99 0C153.676 0 198 44.3238 198 99C198 153.676 153.676 198 99 198C44.3238 198 0 153.676 0 99Z" fill="white"/>
</clipPath>
</defs>
</svg>
