<svg width="304" height="325" viewBox="0 0 304 325" fill="none" xmlns="http://www.w3.org/2000/svg">
<path d="M184.83 104.575C172.592 117.177 124.121 124.374 111.902 143.998C99.4369 164.018 86.7246 176.561 69.5961 196.964" stroke="black" stroke-width="1.53516" stroke-linecap="round"/>
<path d="M175.078 109.361C163.033 106.014 149.792 103.031 138.527 109.284C130.846 113.548 122.672 116.97 114.228 119.472C99.3091 123.89 93.2329 120.907 92.5026 117.382C95.6501 115.388 142.605 87.8109 143.975 87.379C147.042 86.4101 150.358 86.975 153.591 87.0898C185.257 88.2089 203.326 84.7287 234.327 76.1293C254.324 70.5832 260.303 73.2296 283.495 30.2944M49.0489 221.969C48.6721 222.968 44.7283 220.325 47.4624 217.279C53.1804 210.904 59.2868 207.074 65.3685 201.099C78.6827 188.012 112.333 151.48 118.655 147.802C137.457 136.863 183.597 122.043 185.49 117.735M233.155 158.947C250.721 172.061 224.589 202.889 219.227 209.467C195.047 239.123 199.709 261.246 204.048 266.059C204.958 267.071 219.616 247.08 220.834 245.511C259.129 196.19 280.846 179.877 302.447 142.433C307.913 132.958 311.96 122.648 316.706 112.741C327.355 90.5246 340.665 73.4896 370.606 27.9207" stroke="black" stroke-width="1.53516" stroke-linecap="round"/>
<path fill-rule="evenodd" clip-rule="evenodd" d="M169.534 147.321C169.124 141.19 163.955 129.158 163.14 127.686L173.217 123.423C176 126.052 180.462 139.202 179.662 142.85" fill="#F5F5F5"/>
<path d="M169.534 147.321C169.124 141.19 163.955 129.158 163.14 127.686L173.217 123.423C176 126.052 180.462 139.202 179.662 142.85" stroke="black" stroke-width="1.53516" stroke-linecap="round"/>
<path opacity="0.4" fill-rule="evenodd" clip-rule="evenodd" d="M238.428 150.2C234.674 148.889 230.707 150.396 228.587 151.269C200.44 162.864 168.855 163.376 141.715 177.417C118.035 189.667 93.8994 211.542 68.4098 220.153C47.4813 227.222 58.8578 229.317 63.4934 226.076C92.7324 220.523 142.669 181.413 181.17 172.884C255.065 156.515 222.657 157.521 236.03 158.974" fill="#D3D3D3"/>
<path opacity="0.4" d="M351.89 37.5418C350.864 33.8247 346.86 32.4138 344.418 35.2083C339.648 40.666 332.276 50.9559 323.979 68.6555C312.411 93.3288 306.175 126.013 291.016 148.9C280.004 165.524 286.78 163.176 289.712 158.6C290.45 157.447 291.077 156.225 291.937 155.16C310.856 131.735 326.915 73.3388 350.942 42.4195C352.001 41.0565 352.367 39.2712 351.89 37.5418Z" fill="#D3D3D3"/>
<path d="M238.53 159.469C234.782 158.162 230.82 159.665 228.704 160.536C200.597 172.098 169.056 172.609 141.955 186.612C118.309 198.828 95.7957 216.175 70.3423 224.763C49.4435 231.812 45.1853 225.767 49.8143 222.534C75.6404 204.495 99.8959 185.186 125.539 166.773C137.461 158.212 187.482 143.738 186.861 136.67" stroke="black" stroke-width="1.53516" stroke-linecap="round"/>
<path d="M168.519 140.711L178.9 136.627" stroke="black" stroke-width="1.53516" stroke-linecap="round"/>
<path d="M190.458 128.947C191.089 134.854 185.871 140.266 178.57 140.861C171.268 141.456 164.994 136.98 164.363 131.073C163.732 125.166 168.949 119.753 176.251 119.158C183.553 118.563 189.826 123.039 190.458 128.947Z" fill="#EDEEEF" stroke="black" stroke-width="1.5"/>
</svg>
