<svg width="856" height="600" viewBox="0 0 856 600" fill="none" xmlns="http://www.w3.org/2000/svg">
<path d="M360.01 210.149C334.087 236.044 231.528 250.834 205.627 291.161C179.206 332.299 152.281 358.073 115.994 400" stroke="black" stroke-width="1.53516" stroke-linecap="round"/>
<path d="M339.841 222.045C314.567 215.664 286.762 210.054 262.823 223.007C246.5 231.841 229.165 238.993 211.29 244.296C179.712 253.662 167.004 247.831 165.579 240.746C172.276 236.627 272.11 179.578 275.011 178.665C281.504 176.617 288.474 177.655 295.282 177.788C361.973 179.078 400.159 171.507 465.763 153.218C508.08 141.422 520.593 146.576 570.848 59.2802M70.636 452.993C69.8098 455.019 61.5848 449.81 67.4445 443.584C79.6994 430.553 92.6904 422.642 105.699 410.407C134.177 383.607 206.264 308.904 219.704 301.294C259.676 278.659 357.382 247.363 361.509 238.617M460.617 320.272C497.209 346.184 441.149 409.152 429.637 422.582C377.728 483.129 386.837 527.6 395.825 537.175C397.71 539.187 429.242 498.425 431.858 495.222C514.147 394.587 560.435 361.025 607.163 284.852C618.986 265.576 627.847 244.66 638.169 224.537C661.324 179.407 689.921 144.646 754.485 51.8318" stroke="black" stroke-width="1.53516" stroke-linecap="round"/>
<path fill-rule="evenodd" clip-rule="evenodd" d="M326.291 297.162C325.648 284.708 315.1 260.422 313.42 257.456L335.013 248.433C340.834 253.683 349.836 280.269 347.999 287.715" fill="#F5F5F5"/>
<path d="M326.291 297.162C325.648 284.708 315.1 260.422 313.42 257.456L335.013 248.433C340.834 253.683 349.836 280.269 347.999 287.715" stroke="black" stroke-width="1.53516" stroke-linecap="round"/>
<path opacity="0.4" fill-rule="evenodd" clip-rule="evenodd" d="M472.31 301.758C464.48 299.249 456.111 302.386 451.639 304.197C392.236 328.251 325.978 330.235 268.61 359.154C218.555 384.383 167.235 428.883 113.501 446.886C69.383 461.665 93.1752 465.512 103.001 458.885C164.5 446.886 270.482 367.12 351.5 348.885C507 313.885 439 316.885 467 319.385" fill="#D3D3D3"/>
<path opacity="0.4" d="M711.154 71.7575C709.31 64.7664 701.903 62.2672 697.054 67.6301C687.135 78.5996 671.32 99.8491 653.247 136.996C628.722 187.399 614.869 253.898 583.039 300.783C558.502 336.92 575.734 329.12 581.08 318.742C581.754 317.432 582.443 316.157 583.4 315.036C623.502 268.031 658.547 147.151 709.369 82.9936C711.589 80.1917 712.415 76.5364 711.503 73.08L711.154 71.7575Z" fill="#D3D3D3"/>
<path d="M472.309 319.758C464.479 317.249 456.111 320.385 451.638 322.197C392.236 346.25 325.977 348.235 268.609 377.154C218.554 402.383 170.715 437.87 116.981 455.873C72.863 470.652 64.1139 458.654 73.9396 452.028C128.76 415.051 180.322 375.575 234.77 337.853C260.083 320.314 365.603 289.754 364.527 275.592" stroke="black" stroke-width="1.53516" stroke-linecap="round"/>
<path d="M324.633 283.75L346.531 275.267" stroke="black" stroke-width="1.53516" stroke-linecap="round"/>
<path d="M356.405 259.247C357.565 271.507 346.271 282.851 330.814 284.314C315.357 285.777 302.134 276.752 300.974 264.492C299.814 252.232 311.109 240.887 326.566 239.425C342.023 237.962 355.245 246.987 356.405 259.247Z" fill="#EDEEEF" stroke="black" stroke-width="1.5"/>
</svg>
