<svg width="180" height="154" viewBox="0 0 180 154" fill="none" xmlns="http://www.w3.org/2000/svg">
<path d="M69.5085 57.7325C65.3403 64.4523 44.5307 72.6167 41.0779 82.3683C37.5559 92.3159 33.1712 99.0597 27.6159 109.66" stroke="black" stroke-width="1.53516" stroke-linecap="round"/>
<path d="M65.8632 61.2306C60.2408 61.1355 54.125 61.3273 49.7355 65.23C46.7426 67.8913 43.4543 70.249 39.9617 72.2447C33.7911 75.77 30.835 75.1713 30.1867 73.7523C31.3902 72.5565 49.5464 55.6448 50.1108 55.3099C51.3735 54.5594 52.8885 54.4339 54.3248 54.1262C68.3945 51.1091 76.0412 47.6354 88.918 40.5571C97.2241 35.9918 100.106 36.4581 106.36 15.6338M20.7036 123.04C20.6299 123.507 18.6459 122.818 19.5698 121.22C21.5016 117.877 23.8401 115.574 25.9693 112.361C30.6299 105.325 42.089 86.071 44.5367 83.8089C51.8164 77.0811 70.7944 65.6866 71.2302 63.645M96.0673 75.9197C105.029 79.5615 96.3575 95.5591 94.6013 98.9492C86.6825 114.233 90.7865 123.131 93.1458 124.7C93.6407 125.03 98.2548 114.908 98.6465 114.106C110.971 88.899 119.038 79.5634 125.099 61.2507C126.633 56.6167 127.463 51.784 128.64 47.0459C131.279 36.4195 135.572 27.704 144.559 5.01464" stroke="black" stroke-width="1.53516" stroke-linecap="round"/>
<path fill-rule="evenodd" clip-rule="evenodd" d="M66.4424 77.6456C65.7855 74.9389 62.4065 69.6765 61.9056 69.0346L66.4093 67.0357C67.939 68.167 71.0634 73.9321 70.9547 75.5542" fill="#F5F5F5"/>
<path d="M66.4374 77.642C66.1468 74.3787 62.4049 69.6746 61.9044 69.0328L66.4043 67.0344C67.9328 68.1655 70.8654 72.6954 70.8152 74.6822" stroke="black" stroke-width="1.53516" stroke-linecap="round"/>
<path opacity="0.4" fill-rule="evenodd" clip-rule="evenodd" d="M97.6094 71.451C95.8414 71.3097 94.2384 72.3814 93.3884 72.9826C82.0985 80.9659 68.2815 84.6495 57.6585 93.555C48.3894 101.324 39.8041 113.206 29.4066 119.639C20.8695 124.919 26.0555 124.555 27.7925 122.678C40.1166 117.124 58.444 95.1367 74.5601 87.3104C105.492 72.2892 91.3592 76.2719 97.3625 75.4169" fill="#D3D3D3"/>
<path opacity="0.4" d="M134.984 8.61315C134.348 9.20602 130.545 14.3831 127.49 27.9106C124.824 39.7131 125.192 54.3725 120.819 65.7958C117.227 75.1744 121.131 71.7392 121.376 69.1926C127.813 57.3002 129.072 28.6926 137.149 12.6923L134.984 8.61315Z" fill="#D3D3D3"/>
<path d="M98.4967 75.2337C96.7287 75.0924 95.1257 76.1641 94.2757 76.7653C82.9856 84.7488 69.1685 88.4325 58.5453 97.3382C49.2761 105.108 40.9777 114.924 30.58 121.357C22.0428 126.638 19.6144 124.548 21.3514 122.671C31.0425 112.197 39.9263 101.359 49.5027 90.7473C53.9547 85.8136 74.6092 74.189 73.6856 71.2659" stroke="black" stroke-width="1.53516" stroke-linecap="round"/>
<path d="M65.7051 74.9453L69.8859 72.083" stroke="black" stroke-width="1.53516" stroke-linecap="round"/>
<path d="M70.6712 68.4038C71.3811 70.5134 69.8782 73.185 66.8963 74.1894C63.9144 75.1938 61.1024 73.9756 60.3925 71.866C59.6825 69.7564 61.1854 67.0848 64.1674 66.0804C67.1493 65.076 69.9612 66.2942 70.6712 68.4038Z" fill="white" stroke="black" stroke-width="1.5"/>
<path d="M68.2821 67.0376C68.7041 68.2915 67.7777 70.0334 65.7303 70.723C63.6829 71.4127 61.892 70.586 61.4701 69.3321C61.0481 68.0782 61.9745 66.3363 64.0219 65.6467C66.0693 64.957 67.8601 65.7837 68.2821 67.0376Z" fill="white" stroke="black" stroke-width="1.5"/>
</svg>
