<svg width="95" height="95" viewBox="0 0 95 95" fill="none" xmlns="http://www.w3.org/2000/svg">
<g clip-path="url(#clip0_916_43632)">
<path d="M0.976712 66.9507L0.849213 28.3567L28.0491 0.976515L66.6431 0.849011L94.0233 28.0489L94.1508 66.6429L66.9509 94.0231L28.3569 94.1506L0.976712 66.9507Z" stroke="black"/>
<path d="M28.4692 47.5653L29.8938 40.2777L33.9988 34.09L40.1592 29.9442L47.4373 28.4715L54.7249 29.8961L60.9126 34.0011L65.0584 40.1615L66.5311 47.4395L65.1065 54.7271L61.0015 60.9148L54.8411 65.0606L47.563 66.5333L40.2754 65.1087L34.0877 61.0038L29.9419 54.8433L28.4692 47.5653Z" stroke="black"/>
<path d="M0.427734 28.6895L28.4277 47.502L0.427734 67.1895" stroke="black" stroke-linejoin="bevel"/>
<path d="M28.209 94.9688L47.0215 66.9687L66.709 94.9687" stroke="black" stroke-linejoin="bevel"/>
<path d="M0.591797 67.582L33.6932 61.0855L27.8154 94.8056" stroke="black" stroke-linejoin="bevel"/>
<path d="M27.8145 1.06836L34.311 34.1698L0.590843 28.292" stroke="black" stroke-linejoin="bevel"/>
<path d="M94.4902 28.6895L66.4902 47.502L94.4902 67.1895" stroke="black" stroke-linejoin="bevel"/>
<path d="M28.209 0.908203L47.0215 28.9082L66.709 0.908201" stroke="black" stroke-linejoin="bevel"/>
<path d="M67.1035 1.06836L60.607 34.1698L94.3271 28.292" stroke="black" stroke-linejoin="bevel"/>
<path d="M94.3281 67.582L61.2267 61.0855L67.1045 94.8056" stroke="black" stroke-linejoin="bevel"/>
</g>
<defs>
<clipPath id="clip0_916_43632">
<rect width="95" height="95" fill="white"/>
</clipPath>
</defs>
</svg>
