<svg width="17" height="10" viewBox="0 0 17 10" fill="none" xmlns="http://www.w3.org/2000/svg">
<path d="M1.01809 5.34617C0.884249 5.21489 0.769927 5.09797 0.67663 5C0.769927 4.90203 0.884249 4.78511 1.01809 4.65383C1.4353 4.24462 2.03936 3.69874 2.78476 3.15358C4.28633 2.05537 6.30678 1 8.5 1C10.6932 1 12.7137 2.05537 14.2152 3.15358C14.9606 3.69874 15.5647 4.24462 15.9819 4.65383C16.1158 4.7851 16.2301 4.90203 16.3234 5C16.2301 5.09797 16.1158 5.2149 15.9819 5.34617C15.5647 5.75538 14.9606 6.30126 14.2152 6.84642C12.7137 7.94463 10.6932 9 8.5 9C6.30678 9 4.28633 7.94463 2.78476 6.84642C2.03936 6.30126 1.4353 5.75538 1.01809 5.34617Z" stroke="black"/>
<mask id="mask0_102_39729" style="mask-type:alpha" maskUnits="userSpaceOnUse" x="0" y="0" width="17" height="10">
<path d="M17 5C17 5 13.1944 9.25 8.5 9.25C3.80558 9.25 0 5 0 5C0 5 3.80558 0.75 8.5 0.75C13.1944 0.75 17 5 17 5Z" fill="#C4C4C4"/>
</mask>
<g mask="url(#mask0_102_39729)">
<circle cx="8.50006" cy="2.05694" r="4.73077" stroke="black"/>
<circle cx="6.53846" cy="2.05799" r="1.46154" transform="rotate(-180 6.53846 2.05799)" stroke="black"/>
</g>
</svg>
