<svg width="22" height="22" viewBox="0 0 22 22" fill="none" xmlns="http://www.w3.org/2000/svg">
<path d="M0.587827 10.4524C0.587194 12.2945 1.06852 14.093 1.98347 15.678L0.5 21.0941L6.04297 19.6408C7.57023 20.4736 9.28961 20.9125 11.0395 20.9133H11.044C16.8064 20.9133 21.4976 16.2235 21.5 10.4605C21.501 7.66736 20.4142 5.04115 18.4402 3.0655C16.466 1.08985 13.8409 0.00120558 11.044 0C5.28038 0 0.590062 4.68881 0.587651 10.4521L0.587827 10.4524ZM3.88854 15.4049L3.68163 15.0763C2.81156 13.693 2.35235 12.0943 2.35298 10.4529C2.35488 5.66281 6.25335 1.76546 11.047 1.76546C13.3685 1.76636 15.5502 2.67136 17.1913 4.31334C18.8322 5.95543 19.7351 8.13835 19.7345 10.4597C19.7324 15.2501 15.8338 19.1477 11.0438 19.1477H11.0404C9.48067 19.1468 7.95105 18.7282 6.61707 17.9366L6.29958 17.7484L3.01015 18.6108L3.88854 15.4049ZM11.044 20.9133H11.0441H11.044C11.0439 20.9133 11.0438 20.9133 11.044 20.9133Z" fill="black"/>
<path fill-rule="evenodd" clip-rule="evenodd" d="M8.43016 6.08252C8.23442 5.64743 8.02846 5.63872 7.84229 5.63106C7.68992 5.62458 7.51567 5.62501 7.34161 5.62501C7.16734 5.62501 6.8843 5.6904 6.64496 5.95184C6.40541 6.21329 5.73047 6.84529 5.73047 8.13066C5.73047 9.41614 6.66679 10.6582 6.79723 10.8327C6.9279 11.0069 8.60467 13.729 11.26 14.7762C13.467 15.6464 13.9161 15.4734 14.3951 15.4297C14.8741 15.3863 15.9409 14.798 16.1585 14.1879C16.3763 13.5779 16.3763 13.055 16.311 12.9458C16.2457 12.8369 16.0714 12.7715 15.8102 12.641C15.5488 12.5103 14.2644 11.8782 14.025 11.791C13.7854 11.7039 13.6113 11.6604 13.437 11.922C13.2628 12.1832 12.7625 12.7715 12.61 12.9458C12.4576 13.1204 12.3052 13.1422 12.0439 13.0115C11.7826 12.8804 10.9411 12.6048 9.94292 11.7149C9.16622 11.0224 8.64192 10.1672 8.48944 9.90562C8.33708 9.64438 8.47317 9.50286 8.60417 9.3726C8.72155 9.25553 8.86552 9.06756 8.99619 8.91508C9.12655 8.7625 9.17003 8.65363 9.25712 8.47935C9.3443 8.30498 9.30071 8.1524 9.23543 8.02171C9.17003 7.89104 8.66232 6.59907 8.43001 6.08244" fill="black"/>
</svg>
