<svg width="68" height="22" viewBox="0 0 68 22" fill="none" xmlns="http://www.w3.org/2000/svg">
<path d="M11.572 1.008H0.4V21H11.852V17.696H4.432V12.32H11.152V9.016H4.432V4.312H11.572V1.008ZM13.8805 21H25.0525V17.696H17.9125V1.008H13.8805V21ZM27.0374 21H31.0694V1.008H27.0374V21ZM42.4042 13.468L40.4722 4.48H40.4162L38.4842 13.468H42.4042ZM42.9362 1.008L48.2282 21H44.0282L43.1042 16.772H37.7842L36.8602 21H32.6602L37.9522 1.008H42.9362ZM52.1755 4.648V1.008H48.4795V5.376H49.9355V5.824C49.9355 6.34667 49.8142 6.82267 49.5715 7.252C49.3288 7.68133 48.9648 7.94267 48.4795 8.036V9.996C49.2262 9.92133 49.8328 9.744 50.2995 9.464C50.7848 9.16533 51.1675 8.792 51.4475 8.344C51.7275 7.87733 51.9142 7.336 52.0075 6.72C52.1195 6.08533 52.1755 5.39467 52.1755 4.648ZM58.6089 14.756H54.5769V15.568C54.5769 17.416 55.0623 18.8347 56.0329 19.824C57.0223 20.8133 58.6556 21.308 60.9329 21.308C63.1169 21.308 64.8156 20.832 66.0289 19.88C67.2609 18.9093 67.8769 17.3693 67.8769 15.26C67.8769 14.644 67.8209 14.084 67.7089 13.58C67.5969 13.076 67.3916 12.6187 67.0929 12.208C66.8129 11.7787 66.4303 11.3867 65.9449 11.032C65.4596 10.6587 64.8343 10.304 64.0689 9.968L60.9609 8.624C60.1023 8.26933 59.5423 7.88667 59.2809 7.476C59.0196 7.04667 58.8889 6.524 58.8889 5.908C58.8889 5.60933 58.9169 5.32 58.9729 5.04C59.0476 4.76 59.1689 4.51733 59.3369 4.312C59.5236 4.088 59.7663 3.91067 60.0649 3.78C60.3636 3.64933 60.7369 3.584 61.1849 3.584C61.9689 3.584 62.5289 3.84533 62.8649 4.368C63.2009 4.872 63.3689 5.6 63.3689 6.552H67.2329V5.992C67.2329 5.04 67.0743 4.228 66.7569 3.556C66.4583 2.86533 66.0289 2.30533 65.4689 1.876C64.9276 1.428 64.2743 1.11067 63.5089 0.924C62.7623 0.718666 61.9409 0.615999 61.0449 0.615999C59.1223 0.615999 57.6103 1.10133 56.5089 2.072C55.4076 3.04267 54.8569 4.51733 54.8569 6.496C54.8569 7.31733 54.9596 8.04533 55.1649 8.68C55.3703 9.296 55.6876 9.84667 56.1169 10.332C56.5649 10.7987 57.1156 11.2093 57.7689 11.564C58.4223 11.9187 59.1969 12.2453 60.0929 12.544C60.7649 12.768 61.3249 12.992 61.7729 13.216C62.2396 13.4213 62.6129 13.6547 62.8929 13.916C63.1729 14.1773 63.3689 14.476 63.4809 14.812C63.6116 15.1293 63.6769 15.512 63.6769 15.96C63.6769 16.8 63.4249 17.4253 62.9209 17.836C62.4356 18.228 61.8849 18.424 61.2689 18.424C60.7463 18.424 60.3076 18.3493 59.9529 18.2C59.6169 18.0507 59.3463 17.8453 59.1409 17.584C58.9356 17.3227 58.7956 17.0053 58.7209 16.632C58.6463 16.24 58.6089 15.8107 58.6089 15.344V14.756Z" fill="black"/>
</svg>
