<svg width="25" height="17" viewBox="0 0 25 17" fill="none" xmlns="http://www.w3.org/2000/svg">
<path d="M15.8728 2.6543H9.10742V14.809H15.8728V2.6543Z" fill="#FF5A00"/>
<path d="M9.55765 8.7312C9.55765 6.26172 10.7186 4.06996 12.5 2.65383C11.189 1.623 9.53513 1 7.73119 1C3.45777 1 0 4.45777 0 8.7312C0 13.0046 3.45777 16.4624 7.73119 16.4624C9.53513 16.4624 11.189 15.8394 12.5 14.8086C10.7161 13.4125 9.55765 11.2007 9.55765 8.7312Z" fill="#EB001B"/>
<path d="M24.998 8.7312C24.998 13.0046 21.5403 16.4624 17.2669 16.4624C15.4629 16.4624 13.8091 15.8394 12.498 14.8086C14.302 13.3899 15.4404 11.2007 15.4404 8.7312C15.4404 6.26172 14.2795 4.06996 12.498 2.65383C13.8066 1.623 15.4604 1 17.2644 1C21.5403 1 24.998 4.48029 24.998 8.7312Z" fill="#F79E1B"/>
</svg>
